<svg width="125" height="111" viewBox="0 0 125 111" fill="none" xmlns="http://www.w3.org/2000/svg">
<path d="M63.5683 0.00936802C29.0565 -0.580255 0.598997 26.9197 0.00937418 61.4315C-0.325531 80.9999 8.39617 98.5872 22.283 110.283C23.191 109.491 24.165 108.764 25.2476 108.174L43.8962 98.0023C46.3419 96.6674 47.8655 94.1037 47.8655 91.316V83.6745C47.8655 83.6745 42.3914 77.1273 40.3042 68.0306C38.5731 66.9103 37.4127 64.974 37.4127 62.7688V54.4056C37.4127 52.566 38.2311 50.9221 39.5023 49.7712V37.6815C39.5023 37.6815 37.0188 18.8679 62.4976 18.8679C87.9764 18.8679 85.4929 37.6815 85.4929 37.6815V49.7712C86.7664 50.9221 87.5825 52.566 87.5825 54.4056V62.7688C87.5825 65.5801 85.6957 67.9457 83.1344 68.7358C81.7075 73.1721 79.6485 77.4009 76.9268 81.2452C76.2405 82.2146 75.599 83.0353 75.0377 83.6745V91.5094C75.0377 94.3938 76.6674 97.033 79.2476 98.3207L99.2169 108.304C100.415 108.903 101.498 109.66 102.495 110.502C115.962 99.2712 124.663 82.4787 124.986 63.5683C125.58 29.0565 98.0825 0.598991 63.5683 0.00936802Z" fill="#FF005C"/>
</svg>
