<svg width="73" height="74" viewBox="0 0 73 74" fill="none" xmlns="http://www.w3.org/2000/svg">
<path d="M0 33.8625H73V66.4729C73.0001 67.4612 72.8048 68.4398 72.4253 69.3528C72.0458 70.2659 71.4896 71.0955 70.7883 71.7943C70.0871 72.4931 69.2546 73.0474 68.3383 73.4256C67.4221 73.8037 66.4401 73.9983 65.4484 73.9983H0V33.8625Z" fill="#F0DBC2"/>
<path d="M0 41.39H61.6724C62.1683 41.39 62.6593 41.4873 63.1175 41.6763C63.5756 41.8654 63.9919 42.1426 64.3425 42.492C64.6932 42.8414 64.9713 43.2563 65.1611 43.7128C65.3508 44.1694 65.4484 44.6587 65.4484 45.1529V62.7122C65.4484 63.2063 65.3508 63.6957 65.1611 64.1522C64.9713 64.6088 64.6932 65.0236 64.3425 65.3731C63.9919 65.7225 63.5756 65.9997 63.1175 66.1888C62.6593 66.3778 62.1683 66.4751 61.6724 66.4751H0V41.3892V41.39Z" fill="#F2B9B8"/>
<path d="M0 41.39H61.6724C62.1683 41.39 62.6593 41.4873 63.1175 41.6763C63.5756 41.8654 63.9919 42.1426 64.3425 42.492C64.6932 42.8414 64.9713 43.2563 65.1611 43.7128C65.3508 44.1694 65.4484 44.6587 65.4484 45.1529V62.7122C65.4484 63.2063 65.3508 63.6957 65.1611 64.1522C64.9713 64.6088 64.6932 65.0236 64.3425 65.3731C63.9919 65.7225 63.5756 65.9997 63.1175 66.1888C62.6593 66.3778 62.1683 66.4751 61.6724 66.4751H0V41.3892V41.39Z" fill="#F2B9B8"/>
<path d="M0 33.8642L44.0536 7.52533C51.2853 7.5265 58.257 10.2135 63.6076 15.0617C68.9582 19.9099 72.3036 26.5712 72.9905 33.7453L73.0017 33.8642H0Z" fill="#F29C9B"/>
<path d="M57.8964 21.3217C62.067 21.3217 65.448 17.9525 65.448 13.7964C65.448 9.64027 62.067 6.27106 57.8964 6.27106C53.7258 6.27106 50.3448 9.64027 50.3448 13.7964C50.3448 17.9525 53.7258 21.3217 57.8964 21.3217Z" fill="#F0614A"/>
<path d="M61.6538 7.27448C61.5662 9.96956 60.4527 12.5304 58.5394 14.4371C56.626 16.3439 54.0562 17.4535 51.3517 17.5408C51.9275 18.5459 52.7282 19.4051 53.6915 20.0516C54.6549 20.6981 55.7549 21.1145 56.906 21.2684C58.0571 21.4222 59.2283 21.3094 60.3285 20.9387C61.4288 20.568 62.4284 19.9494 63.2496 19.131C64.0709 18.3126 64.6916 17.3165 65.0636 16.2201C65.4356 15.1237 65.5488 13.9565 65.3944 12.8094C65.24 11.6623 64.8222 10.5662 64.1735 9.60619C63.5247 8.64622 62.6625 7.84829 61.6538 7.27448Z" fill="#EA5242"/>
<path d="M59.1551 11.2882H56.6377C56.6413 8.29552 57.836 5.42643 59.9595 3.31026C62.0831 1.1941 64.9622 0.00363759 67.9653 0V2.50859C65.6295 2.51121 63.3901 3.43704 61.7384 5.08298C60.0867 6.72891 59.1577 8.96053 59.1551 11.2882Z" fill="#965735"/>
<path d="M45.6789 17.1927L47.4589 15.4188L43.6828 11.6558L41.9027 13.4296L45.6789 17.1927Z" fill="#965735"/>
<path d="M29.8407 24.7166L33.6169 20.9536L31.8368 19.1798L28.0607 22.9428L29.8407 24.7166Z" fill="#965735"/>
<path d="M36.869 29.736L38.649 27.9622L34.8729 24.1992L33.0928 25.973L36.869 29.736Z" fill="#965735"/>
<path d="M41.1658 24.7205L44.942 20.9575L43.1619 19.1836L39.3858 22.9467L41.1658 24.7205Z" fill="#965735"/>
<path d="M62.562 29.7338L66.3381 25.9708L64.5581 24.197L60.7819 27.96L62.562 29.7338Z" fill="#965735"/>
<path d="M48.7179 29.7347L52.494 25.9716L50.714 24.1978L46.9378 27.9608L48.7179 29.7347Z" fill="#965735"/>
<path d="M21.0275 29.7403L24.8036 25.9772L23.0236 24.2034L19.2475 27.9664L21.0275 29.7403Z" fill="#965735"/>
<path d="M46.1713 41.39H61.6724C62.1683 41.39 62.6593 41.4873 63.1175 41.6764C63.5756 41.8654 63.9919 42.1426 64.3425 42.492C64.6932 42.8415 64.9713 43.2563 65.1611 43.7129C65.3508 44.1694 65.4484 44.6588 65.4484 45.1529V62.7122C65.4484 63.2064 65.3508 63.6957 65.1611 64.1523C64.9713 64.6088 64.6932 65.0237 64.3425 65.3731C63.9919 65.7225 63.5756 65.9997 63.1175 66.1888C62.6593 66.3779 62.1683 66.4751 61.6724 66.4751H17.024L8.28052 74.0004H65.4484C66.4401 74.0005 67.4221 73.8059 68.3383 73.4277C69.2546 73.0496 70.0871 72.4952 70.7883 71.7964C71.4896 71.0976 72.0458 70.268 72.4253 69.355C72.8048 68.4419 73.0001 67.4633 73 66.4751V33.8625H54.9161L46.1713 41.39Z" fill="#EBD3B7"/>
<path d="M61.6737 66.4747C62.1696 66.4747 62.6606 66.3774 63.1188 66.1884C63.5769 65.9993 63.9932 65.7221 64.3439 65.3727C64.6945 65.0232 64.9726 64.6084 65.1624 64.1518C65.3521 63.6953 65.4498 63.206 65.4497 62.7118V45.1529C65.4498 44.6588 65.3521 44.1694 65.1624 43.7129C64.9726 43.2563 64.6945 42.8415 64.3439 42.492C63.9932 42.1426 63.5769 41.8655 63.1188 41.6764C62.6606 41.4873 62.1696 41.39 61.6737 41.39H46.1709L17.024 66.476L61.6737 66.4747Z" fill="#F2AEAC"/>
<path d="M65.448 52.6783H0V55.1869H65.448V52.6783Z" fill="#F28685"/>
</svg>
