<svg width="82" height="82" viewBox="0 0 82 82" fill="none" xmlns="http://www.w3.org/2000/svg">
<g clip-path="url(#clip0)" filter="url(#filter0_d)">
<path d="M11.903 25.0039H70.0971V64.6055H11.903V25.0039Z" fill="#E57500"/>
<path d="M41.1217 25.0039H70.0974V64.6055H41.1217V25.0039Z" fill="#984C00"/>
<path d="M16.9797 42.1783H21.2061V46.4059H16.9797V42.1783Z" fill="#984C00"/>
<path d="M23.4938 52.2236H27.7213V56.4512H23.4938V52.2236Z" fill="#984C00"/>
<path d="M32.7312 43.9127H36.9579V48.1402H32.7312V43.9127Z" fill="#984C00"/>
<path d="M53.4655 41.5889H57.693V45.8164H53.4655V41.5889Z" fill="#703700"/>
<path d="M59.4517 51.2842H63.6792V55.5117H59.4517V51.2842Z" fill="#703700"/>
<path d="M44.6145 52.2241H48.842V56.4517H44.6145V52.2241Z" fill="#703700"/>
<path d="M78 60.2695V66.3398C77.9974 68.3709 77.1893 70.3181 75.753 71.7541C74.3166 73.1902 72.3693 73.9979 70.3382 74H11.6602C9.62935 73.9974 7.68245 73.1896 6.24646 71.7536C4.81046 70.3176 4.00258 68.3707 4 66.3398V60.2695H78Z" fill="#FFDD48"/>
<path d="M11.903 25.0039H70.0971V37.7949H11.903V25.0039Z" fill="#984C00"/>
<path d="M55.8404 14.719V18.8861H26.4023V14.719C26.4023 12.7861 26.7831 10.8721 27.5228 9.08631C28.2625 7.30051 29.3467 5.6779 30.7135 4.31111C32.0802 2.94432 33.7029 1.86012 35.4887 1.12042C37.2745 0.380719 39.1885 0 41.1214 0C43.0543 0 44.9683 0.380719 46.7541 1.12042C48.5399 1.86012 50.1625 2.94432 51.5293 4.31111C52.8961 5.6779 53.9803 7.30051 54.72 9.08631C55.4597 10.8721 55.8404 12.7861 55.8404 14.719Z" fill="#FFD9A7"/>
<path d="M55.8424 18.8861H41.1213V0C45.0239 0.00429739 48.7655 1.55636 51.5253 4.31573C54.285 7.0751 55.8376 10.8164 55.8424 14.719V18.8861Z" fill="#FFC273"/>
<path d="M41.1213 25.0039H70.097V37.7949H41.1213V25.0039Z" fill="#703700"/>
<path d="M78 60.2695V66.3398C77.9974 68.3707 77.1895 70.3176 75.7535 71.7536C74.3175 73.1896 72.3706 73.9974 70.3398 74H41.1213V60.2695H78Z" fill="#FFA820"/>
<path d="M61.1621 21.944C61.1474 23.9172 60.3506 25.8041 58.9465 27.1906C57.5424 28.5771 55.6457 29.35 53.6725 29.3399H52.2012V32.5731C52.2012 34.4418 51.4588 36.234 50.1375 37.5553C48.8161 38.8767 47.0239 39.619 45.1553 39.619C43.2866 39.619 41.4944 38.8767 40.1731 37.5553C38.8517 36.234 38.1094 34.4418 38.1094 32.5731V29.3399H28.3275C27.3484 29.3524 26.3766 29.1704 25.4684 28.8044C24.5602 28.4385 23.7337 27.8958 23.0369 27.2078C22.3401 26.5199 21.7868 25.7005 21.4092 24.797C21.0316 23.8936 20.8372 22.9242 20.8372 21.945C20.8372 20.9658 21.0316 19.9964 21.4092 19.093C21.7868 18.1896 22.3401 17.3701 23.0369 16.6822C23.7337 15.9943 24.5602 15.4516 25.4684 15.0856C26.3766 14.7196 27.3484 14.5376 28.3275 14.5502H53.6725C55.6454 14.5399 57.5419 15.3125 58.9459 16.6986C60.35 18.0847 61.147 19.9711 61.1621 21.944Z" fill="#FFF3C9"/>
<path d="M61.1609 21.9439C61.1461 23.9169 60.3495 25.8036 58.9457 27.1901C57.5419 28.5765 55.6455 29.3496 53.6724 29.3398H52.2011V32.5731C52.202 33.8616 51.8493 35.1256 51.1814 36.2275C50.5135 37.3294 49.556 38.2269 48.4133 38.8223C47.2706 39.4176 45.9864 39.6879 44.7006 39.6039C43.4148 39.5198 42.1768 39.0845 41.1213 38.3454V14.5505H53.6724C55.6451 14.5406 57.5412 15.3133 58.945 16.6993C60.3487 18.0852 61.1456 19.9713 61.1609 21.9439Z" fill="#FFD9A7"/>
</g>
<defs>
<filter id="filter0_d" x="0" y="0" width="82" height="82" filterUnits="userSpaceOnUse" color-interpolation-filters="sRGB">
<feFlood flood-opacity="0" result="BackgroundImageFix"/>
<feColorMatrix in="SourceAlpha" type="matrix" values="0 0 0 0 0 0 0 0 0 0 0 0 0 0 0 0 0 0 127 0"/>
<feOffset dy="4"/>
<feGaussianBlur stdDeviation="2"/>
<feColorMatrix type="matrix" values="0 0 0 0 0 0 0 0 0 0 0 0 0 0 0 0 0 0 0.25 0"/>
<feBlend mode="normal" in2="BackgroundImageFix" result="effect1_dropShadow"/>
<feBlend mode="normal" in="SourceGraphic" in2="effect1_dropShadow" result="shape"/>
</filter>
<clipPath id="clip0">
<rect width="74" height="74" fill="white" transform="translate(4)"/>
</clipPath>
</defs>
</svg>
