<svg width="18" height="79" viewBox="0 0 18 79" fill="none" xmlns="http://www.w3.org/2000/svg">
<path d="M13.9532 59.3036C12.8235 58.8469 11.8509 58.0652 11.1557 57.0551C10.4604 56.0451 10.0731 54.851 10.0415 53.6206C10.01 52.3901 10.3356 51.1774 10.9781 50.1322C11.6206 49.087 12.5518 48.2553 13.6566 47.74C12.4918 47.0339 11.614 45.9307 11.1809 44.6287C10.7477 43.3266 10.7876 41.911 11.2933 40.636C11.5287 40.064 11.8547 39.5347 12.2585 39.0689C11.084 38.9072 9.96167 38.4759 8.97728 37.808C7.9929 37.14 7.17255 36.2531 6.57901 35.2151C5.98546 34.1771 5.63443 33.0155 5.55278 31.8191C5.47113 30.6228 5.66102 29.4234 6.10792 28.3127C6.45882 27.4364 6.96282 26.6312 7.59578 25.9357C3.0094 22.2267 -2.59951 20.0454 -8.46051 19.6914C-14.3215 19.3374 -20.1471 20.828 -25.1371 23.9585C-30.127 27.089 -34.0366 31.7059 -36.3288 37.1749C-38.621 42.6439 -39.1833 48.6968 -37.9386 54.5022C-36.6939 60.3076 -33.7031 65.5807 -29.3771 69.5971C-25.0511 73.6136 -19.6021 76.1764 -13.7786 76.9336C-7.95501 77.6908 -2.04259 76.6051 3.14658 73.8258C8.33575 71.0465 12.5471 66.7099 15.2022 61.4115C15.4808 60.8557 15.7041 60.2892 15.9441 59.7251C15.262 59.6972 14.5892 59.5547 13.9532 59.3036Z" fill="#A46F3E"/>
<path d="M-10.1856 78.5886C-17.279 78.5815 -24.1376 76.0166 -29.5303 71.3543C-34.923 66.692 -38.4965 60.2377 -39.6095 53.1499C-40.7225 46.062 -39.3021 38.8049 -35.6031 32.6812C-31.9042 26.5576 -26.1689 21.9683 -19.427 19.7373C-15.7076 18.494 -11.7814 18.0097 -7.87565 18.3124C-3.96994 18.6151 -0.162415 19.6989 3.3264 21.5009C5.14603 22.4338 6.86676 23.5523 8.46182 24.839L9.62114 25.7761L8.61831 26.8831C7.91584 27.6548 7.40915 28.5875 7.14186 29.6011C6.87457 30.6147 6.85466 31.6789 7.08386 32.702C7.31305 33.7251 7.78448 34.6766 8.4576 35.4746C9.13071 36.2725 9.98536 36.8931 10.948 37.2829C11.4309 37.4784 11.9359 37.6122 12.4514 37.6812L14.9434 38.0377L13.3154 39.9794C13.0084 40.3306 12.7602 40.7302 12.5805 41.1623C12.1945 42.1275 12.1631 43.2006 12.4918 44.1872C12.8205 45.1738 13.4876 46.0086 14.3723 46.5404L16.6078 47.9016L14.242 49.0144C13.3842 49.4161 12.6613 50.0631 12.1626 50.8755C11.6639 51.688 11.4112 52.6304 11.4357 53.5865C11.4601 54.5426 11.7607 55.4705 12.3003 56.2557C12.84 57.041 13.595 57.6492 14.4723 58.0054C14.9667 58.1999 15.4898 58.309 16.0199 58.3283L17.999 58.4377L17.074 60.6277C16.8741 61.1035 16.6758 61.581 16.4415 62.0477C14.6797 65.5876 12.2416 68.7389 9.26818 71.3193C6.29477 73.8996 2.84513 75.8578 -0.881157 77.0804C-3.88477 78.0759 -7.02498 78.5849 -10.1856 78.5886ZM-10.1275 21.0321C-14.9391 21.0256 -19.6653 22.3175 -23.8189 24.7749C-27.9725 27.2322 -31.4031 30.7659 -33.7571 35.0117C-36.111 39.2575 -37.3031 44.0616 -37.2104 48.9288C-37.1176 53.796 -35.7435 58.5502 -33.2295 62.701C-30.7156 66.8518 -27.153 70.2492 -22.9088 72.5427C-18.6647 74.8363 -13.8928 75.943 -9.08502 75.7489C-4.27726 75.5547 0.392326 74.0667 4.44227 71.4382C8.49221 68.8098 11.7759 65.1359 13.9549 60.7956C13.7775 60.7397 13.6026 60.6779 13.4322 60.6074C12.2155 60.1153 11.1451 59.3136 10.3247 58.28C9.5042 57.2464 8.96145 56.016 8.749 54.7079C8.53654 53.3998 8.66159 52.0583 9.11201 50.8134C9.56244 49.5686 10.323 48.4625 11.32 47.6023C10.425 46.6066 9.82656 45.3752 9.59367 44.0502C9.36077 42.7252 9.50294 41.3605 10.0038 40.1137C10.0259 40.059 10.048 40.0056 10.0718 39.9508C10.0177 39.9297 9.96238 39.9094 9.9079 39.8862C7.64988 38.9626 5.84605 37.1706 4.89196 34.9034C3.93787 32.6361 3.9114 30.0786 4.81836 27.7916C5.03983 27.2351 5.31523 26.7021 5.64053 26.2005C4.50751 25.3769 3.31369 24.6425 2.06958 24.0038C-1.70762 22.0545 -5.88684 21.0364 -10.1271 21.0325L-10.1275 21.0321Z" fill="#A46F3E"/>
<path d="M-2.76759 63.3993C-0.0868115 63.3993 2.08639 61.2006 2.08639 58.4883C2.08639 55.776 -0.0868115 53.5773 -2.76759 53.5773C-5.44838 53.5773 -7.62158 55.776 -7.62158 58.4883C-7.62158 61.2006 -5.44838 63.3993 -2.76759 63.3993Z" fill="#8C572C"/>
</svg>
