<svg width="83" height="66" viewBox="0 0 83 66" fill="none" xmlns="http://www.w3.org/2000/svg">
<path d="M51.1182 19.0533V25.5342L41.8334 65.9996H0V24.0541C0.000318612 22.7276 0.530734 21.4555 1.47457 20.5177C2.41841 19.5799 3.69837 19.0531 5.03289 19.0533H51.1182Z" fill="#F7B239"/>
<path d="M41.8334 49.0307H5.02887V35.963H36.1065L42.4565 46.9463C42.4581 47.6505 41.7048 48.3475 41.8334 49.0307Z" fill="#F95428"/>
<path d="M39.497 56.4972L39.0965 56.8077H5.02887V47.4765H35.4873C35.9791 50.7884 37.3648 53.9058 39.497 56.4972Z" fill="#995C0D"/>
<path d="M51.1186 25.5342V32.375L48.165 34.453V38.8495H5.02887V25.5342H51.1186Z" fill="#B27214"/>
<path d="M27.2382 10.3352C27.2065 10.3352 27.1749 10.3352 27.1428 10.3324C26.7307 10.3077 26.3451 10.1217 26.0705 9.81516C25.7959 9.50862 25.6546 9.10647 25.6775 8.69664C25.6867 8.50596 25.8501 4.27387 22.0823 3.02547C21.6893 2.89523 21.3645 2.61515 21.1792 2.24683C20.994 1.87852 20.9635 1.45214 21.0945 1.06149C21.2255 0.670847 21.5073 0.347937 21.8778 0.163797C22.2484 -0.0203423 22.6773 -0.0506276 23.0703 0.0796051C27.9226 1.68749 28.9374 6.53621 28.7972 8.87738C28.773 9.27202 28.5981 9.64259 28.3084 9.91349C28.0187 10.1844 27.6359 10.3352 27.2382 10.3352Z" fill="#B27214"/>
<path d="M49.4442 65.2981V65.9996H5.02887V55.2512H41.9451L42.3777 55.0442C42.6804 55.2675 42.9976 55.4821 43.3292 55.6879C45.1414 56.7764 46.6845 58.2558 47.8443 60.0167C48.8736 61.5894 49.4287 63.422 49.4442 65.2981Z" fill="#F77D2B"/>
<path d="M28.8625 49.0311C28.7349 48.3435 28.6708 47.6458 28.6711 46.9467V32.3766H71.4853V46.9467C71.4844 48.605 71.1251 50.2439 70.4318 51.7523C69.7384 53.2606 68.7271 54.6033 67.4664 55.6895C66.0804 56.8826 64.9688 58.3582 64.2071 60.016C63.4454 61.6739 63.0514 63.4752 63.0519 65.2978V65.9992H37.1045V65.2978C37.1052 63.475 36.7111 61.6734 35.949 60.0155C35.1869 58.3576 34.0747 56.8821 32.6879 55.6895C32.4477 55.4825 32.2194 55.2691 32.0007 55.0458C30.3738 53.3974 29.2808 51.3025 28.8625 49.0311Z" fill="#E6E6E6"/>
<path d="M38.2811 55.0462C38.4237 55.2695 38.5731 55.4841 38.7297 55.6899C39.6905 56.9956 40.4109 58.4603 40.8574 60.0159L40.8606 60.0263C40.9499 60.3326 41.1365 60.602 41.3926 60.7942C41.6486 60.9864 41.9603 61.0912 42.2812 61.0927H57.8792C58.1973 61.0928 58.5068 60.9907 58.7616 60.8015C59.0165 60.6124 59.203 60.3465 59.2933 60.0434C59.7383 58.4778 60.4605 57.0036 61.4259 55.6899C62.299 54.501 62.9541 53.1684 63.3611 51.7532C63.8218 50.1924 64.0534 48.5736 64.0487 46.947V32.377H36.1081V46.947C36.1077 47.6437 36.1495 48.3398 36.233 49.0314C36.4578 51.1627 37.1574 53.2174 38.2811 55.0462Z" fill="#F2F2F2"/>
<path d="M34.1333 15.6381C34.1356 16.8362 33.8195 18.0137 33.217 19.0513V19.0533H21.2585V19.0513C20.732 18.1402 20.4232 17.1209 20.3561 16.0723C20.289 15.0236 20.4654 13.9737 20.8715 13.0035C21.2777 12.0334 21.9028 11.1691 22.6986 10.4774C23.4943 9.78573 24.4394 9.28514 25.4608 9.01436C26.4822 8.74358 27.5526 8.70986 28.5892 8.91579C29.6257 9.12172 30.6008 9.56179 31.4391 10.202C32.2773 10.8422 32.9562 11.6654 33.4234 12.608C33.8906 13.5506 34.1335 14.5873 34.1333 15.6381Z" fill="#F95428"/>
<path d="M69.4068 60.6994C69.0974 60.6998 68.7888 60.6692 68.4857 60.6079C66.6775 60.2416 65.2446 58.7819 64.2261 56.2687L67.1236 55.1087C67.5373 56.1294 68.2178 57.3842 69.1096 57.5649C71.0376 57.9554 74.8922 54.1198 76.5394 52.4821C79.7661 49.2759 80.6508 42.5812 79.2319 39.1756C78.378 37.1262 77.1201 37.1262 76.7088 37.1262C71.9006 37.1262 71.2703 41.7751 71.2458 41.9729L68.1457 41.594C68.4701 38.9749 70.6763 34.0215 76.7088 34.0215C79.1326 34.0215 81.0541 35.4299 82.1194 37.9877C83.9748 42.4419 82.928 50.5275 78.7497 54.6776C75.5494 57.8595 72.4224 60.6994 69.4068 60.6994Z" fill="#E6E6E6"/>
</svg>
