<svg width="90" height="88" viewBox="0 0 90 88" fill="none" xmlns="http://www.w3.org/2000/svg">
<g filter="url(#filter0_d)">
<path d="M45.0002 0C37.0889 0 29.3553 2.34597 22.7773 6.74125C16.1993 11.1365 11.0723 17.3837 8.04482 24.6928C5.0173 32.0019 4.22516 40.0446 5.76858 47.8039C7.312 55.5631 11.1216 62.6905 16.7158 68.2846C22.3099 73.8787 29.4373 77.6884 37.1965 79.2318C44.9558 80.7752 52.9985 79.9831 60.3076 76.9556C67.6167 73.9281 73.8639 68.8011 78.2591 62.2231C82.6544 55.6451 85.0004 47.9115 85.0004 40.0002C85.0004 29.3915 80.7861 19.2173 73.2846 11.7158C65.7831 4.2143 55.6089 0 45.0002 0V0ZM45.0002 52.1034C42.6064 52.1034 40.2664 51.3935 38.276 50.0636C36.2857 48.7337 34.7344 46.8434 33.8183 44.6319C32.9023 42.4203 32.6626 39.9868 33.1296 37.639C33.5966 35.2912 34.7493 33.1346 36.442 31.442C38.1346 29.7493 40.2912 28.5966 42.639 28.1296C44.9868 27.6626 47.4203 27.9023 49.6319 28.8183C51.8434 29.7344 53.7337 31.2857 55.0636 33.2761C56.3935 35.2664 57.1033 37.6064 57.1033 40.0002C57.1033 43.2102 55.8282 46.2886 53.5584 48.5584C51.2886 50.8282 48.2101 52.1034 45.0002 52.1034Z" fill="#FEF1DA"/>
<path d="M45.0002 0.000412373C44.1755 0.000412373 43.3566 0.0252922 42.5437 0.0750519C52.71 0.697838 62.2557 5.17534 69.2342 12.5944C76.2126 20.0134 80.0981 29.8151 80.0981 40.0004C80.0981 50.1857 76.2126 59.9874 69.2342 67.4065C62.2557 74.8255 52.71 79.303 42.5437 79.9258C43.3566 79.9753 44.1755 80.0001 45.0002 80.0004C55.6089 80.0004 65.7831 75.7861 73.2846 68.2846C80.7861 60.7831 85.0004 50.6089 85.0004 40.0002C85.0004 29.3915 80.7861 19.2173 73.2846 11.7158C65.7831 4.21429 55.6089 0 45.0002 0V0.000412373Z" fill="#FDE6BF"/>
<path d="M45.0766 0.000914667C38.1343 -0.0111244 31.3083 1.7835 25.2696 5.2084C19.2309 8.63331 14.1873 13.5706 10.6346 19.535C7.08183 25.4994 5.14223 32.2856 5.00641 39.2266C4.87059 46.1676 6.54322 53.0245 9.85991 59.1233C9.9494 59.2867 10.0908 59.4158 10.2617 59.49C10.4326 59.5643 10.6234 59.5795 10.8039 59.5333C10.9845 59.4871 11.1445 59.3822 11.2588 59.235C11.3731 59.0878 11.4352 58.9067 11.4352 58.7204C11.4293 58.087 11.549 57.4587 11.7873 56.8718C12.0256 56.2849 12.3779 55.751 12.8237 55.3011C13.2696 54.8511 13.8001 54.4939 14.3848 54.2501C14.9694 54.0064 15.5966 53.8809 16.23 53.8809C16.8635 53.8809 17.4906 54.0064 18.0753 54.2501C18.66 54.4939 19.1905 54.8511 19.6364 55.3011C20.0822 55.751 20.4344 56.2849 20.6728 56.8718C20.9111 57.4587 21.0308 58.087 21.0249 58.7204V62.3782C21.0366 63.6421 21.547 64.8503 22.4449 65.74C23.3429 66.6296 24.5558 67.1288 25.8198 67.1288C27.0838 67.1288 28.2967 66.6296 29.1947 65.74C30.0926 64.8503 30.6029 63.6421 30.6147 62.3782V61.6202C30.6147 60.9906 30.7387 60.3671 30.9796 59.7854C31.2206 59.2037 31.5738 58.6751 32.019 58.2299C32.4642 57.7846 32.9928 57.4315 33.5745 57.1905C34.1562 56.9496 34.7797 56.8255 35.4093 56.8255C36.039 56.8255 36.6624 56.9496 37.2442 57.1905C37.8259 57.4315 38.3544 57.7846 38.7997 58.2299C39.2449 58.6751 39.5981 59.2037 39.839 59.7854C40.08 60.3671 40.204 60.9906 40.204 61.6202V68.7473C40.1981 69.3807 40.3178 70.009 40.5561 70.5959C40.7945 71.1828 41.1467 71.7166 41.5925 72.1666C42.0384 72.6166 42.5689 72.9738 43.1536 73.2175C43.7383 73.4613 44.3654 73.5868 44.9989 73.5868C45.6323 73.5868 46.2595 73.4613 46.8441 73.2175C47.4288 72.9738 47.9593 72.6166 48.4052 72.1666C48.851 71.7166 49.2033 71.1828 49.4416 70.5959C49.6799 70.009 49.7996 69.3807 49.7937 68.7473V61.6202C49.7878 60.9868 49.9075 60.3585 50.1459 59.7716C50.3842 59.1847 50.7365 58.6508 51.1823 58.2009C51.6281 57.7509 52.1587 57.3937 52.7433 57.1499C53.328 56.9062 53.9552 56.7807 54.5886 56.7807C55.222 56.7807 55.8492 56.9062 56.4339 57.1499C57.0185 57.3937 57.5491 57.7509 57.9949 58.2009C58.4407 58.6508 58.793 59.1847 59.0313 59.7716C59.2696 60.3585 59.3893 60.9868 59.3835 61.6202V62.3782C59.3952 63.6421 59.9055 64.8503 60.8035 65.74C61.7014 66.6296 62.9143 67.1288 64.1783 67.1288C65.4424 67.1288 66.6553 66.6296 67.5532 65.74C68.4511 64.8503 68.9615 63.6421 68.9732 62.3782V58.7204C68.9732 58.0908 69.0972 57.4673 69.3382 56.8856C69.5791 56.3038 69.9323 55.7753 70.3775 55.3301C70.8228 54.8848 71.3513 54.5317 71.933 54.2907C72.5147 54.0498 73.1382 53.9257 73.7679 53.9257C74.3975 53.9257 75.021 54.0498 75.6027 54.2907C76.1844 54.5317 76.713 54.8848 77.1582 55.3301C77.6034 55.7753 77.9566 56.3038 78.1976 56.8856C78.4385 57.4673 78.5625 58.0908 78.5625 58.7204C78.5623 58.9066 78.624 59.0875 78.7379 59.2348C78.8517 59.382 79.0113 59.4873 79.1916 59.5339C79.3718 59.5805 79.5624 59.5658 79.7334 59.4923C79.9044 59.4187 80.0461 59.2903 80.1361 59.1274C83.4471 53.0401 85.1203 46.1973 84.9919 39.269C84.8634 32.3407 82.9378 25.5646 79.4035 19.6042C75.8692 13.6437 70.8475 8.70345 64.8301 5.26708C58.8128 1.8307 52.006 0.0160783 45.0766 0.000914667ZM44.9995 52.1039C42.6057 52.1039 40.2656 51.394 38.2753 50.0641C36.2849 48.7342 34.7336 46.8439 33.8176 44.6323C32.9015 42.4207 32.6619 39.9871 33.1289 37.6393C33.5959 35.2916 34.7487 33.135 36.4414 31.4423C38.1341 29.7497 40.2907 28.597 42.6385 28.1301C44.9863 27.6631 47.4199 27.9028 49.6314 28.819C51.843 29.7351 53.7332 31.2864 55.0631 33.2769C56.3929 35.2673 57.1027 37.6073 57.1026 40.0011C57.1025 43.211 55.8273 46.2894 53.5575 48.5591C51.2878 50.8288 48.2094 52.1039 44.9995 52.1039Z" fill="#FF646F"/>
<path d="M45.0773 0.000411987C44.2289 0.000411987 43.3864 0.0252918 42.5499 0.0750515C48.9011 0.470602 55.0664 2.37479 60.5345 5.62967C66.0026 8.88455 70.6158 13.3963 73.9915 18.7907C77.3672 24.185 79.408 30.3065 79.9447 36.6473C80.4814 42.9882 79.4985 49.3656 77.0775 55.2506C77.5474 55.6981 77.9213 56.2366 78.1765 56.8332C78.4318 57.4299 78.5629 58.0722 78.562 58.7211C78.5618 58.9072 78.6235 59.088 78.7374 59.2351C78.8512 59.3822 79.0107 59.4874 79.1908 59.5339C79.3709 59.5805 79.5614 59.5658 79.7323 59.4923C79.9032 59.4188 80.0448 59.2905 80.1348 59.1277C83.4461 53.0406 85.1197 46.1978 84.9916 39.2695C84.8634 32.3412 82.938 25.5649 79.4039 19.6043C75.8698 13.6438 70.8482 8.70334 64.8309 5.26684C58.8135 1.83033 52.0068 0.0156151 45.0773 0.000411987V0.000411987Z" fill="#FF4755"/>
<path d="M48.705 7.62477C48.705 8.35751 48.4877 9.07378 48.0806 9.68303C47.6735 10.2923 47.0949 10.7671 46.418 11.0475C45.741 11.3279 44.9961 11.4013 44.2775 11.2584C43.5588 11.1154 42.8987 10.7626 42.3806 10.2444C41.8625 9.72632 41.5096 9.06619 41.3667 8.34754C41.2237 7.62889 41.2971 6.88398 41.5775 6.20702C41.8579 5.53007 42.3327 4.95146 42.942 4.54438C43.5512 4.13729 44.2675 3.92001 45.0002 3.92001C45.9828 3.92001 46.9251 4.31033 47.6199 5.00511C48.3147 5.69989 48.705 6.64221 48.705 7.62477Z" fill="#FDD79B"/>
<path d="M65.9327 26.1531C65.9327 26.7695 65.7499 27.372 65.4075 27.8844C65.0651 28.3969 64.5784 28.7963 64.0089 29.0322C63.4395 29.2681 62.8129 29.3298 62.2084 29.2096C61.6039 29.0893 61.0486 28.7925 60.6128 28.3567C60.177 27.9209 59.8802 27.3656 59.76 26.7611C59.6397 26.1566 59.7014 25.53 59.9373 24.9606C60.1732 24.3911 60.5726 23.9044 61.0851 23.562C61.5975 23.2196 62.2 23.0368 62.8164 23.0368C63.6429 23.0368 64.4355 23.3651 65.0199 23.9496C65.6044 24.534 65.9327 25.3266 65.9327 26.1531Z" fill="#FDD79B"/>
<path d="M26.1448 46.1054C26.1448 46.7542 25.9523 47.3884 25.5918 47.9278C25.2312 48.4672 24.7188 48.8876 24.1194 49.1359C23.5199 49.3841 22.8604 49.4489 22.224 49.3223C21.5877 49.1956 21.0032 48.8831 20.5445 48.4243C20.0858 47.9655 19.7734 47.3809 19.6469 46.7446C19.5204 46.1082 19.5855 45.4486 19.8339 44.8492C20.0822 44.2498 20.5027 43.7376 21.0422 43.3772C21.5818 43.0168 22.216 42.8245 22.8648 42.8246C23.2956 42.8246 23.7222 42.9094 24.1202 43.0743C24.5182 43.2392 24.8799 43.4809 25.1844 43.7855C25.489 44.0902 25.7306 44.4519 25.8954 44.8499C26.0602 45.248 26.1449 45.6746 26.1448 46.1054Z" fill="#FDD79B"/>
<path d="M31.5993 24.3779C31.5993 25.797 31.1785 27.1843 30.3901 28.3642C29.6016 29.5442 28.481 30.4639 27.1699 31.007C25.8588 31.55 24.4161 31.6921 23.0242 31.4153C21.6323 31.1384 20.3538 30.455 19.3503 29.4516C18.3468 28.4481 17.6635 27.1696 17.3866 25.7777C17.1097 24.3858 17.2518 22.9431 17.7949 21.632C18.338 20.3209 19.2577 19.2002 20.4376 18.4118C21.6176 17.6234 23.0049 17.2026 24.424 17.2026C26.327 17.2026 28.1521 17.9585 29.4977 19.3042C30.8433 20.6498 31.5993 22.4748 31.5993 24.3779Z" fill="#FDD79B"/>
<path d="M77.7113 38.1821C77.9827 39.8751 78.8348 41.421 80.1215 42.5545C81.4081 43.6879 83.0491 44.3383 84.7629 44.394C84.9222 42.9349 85.002 41.4681 85.002 40.0002C85.0041 36.5413 84.5579 33.0966 83.6746 29.7523C81.7762 30.0993 80.0892 31.1759 78.975 32.7516C77.8607 34.3272 77.4078 36.2766 77.7133 38.1821H77.7113Z" fill="#FDD79B"/>
<path d="M83.6726 29.7523C81.9786 30.0605 80.4464 30.953 79.3427 32.2744C79.8401 34.8195 80.0899 37.4069 80.0886 40.0002C80.0886 40.825 80.064 41.6438 80.0148 42.4567C81.3148 43.6493 82.9989 44.3369 84.7621 44.3949C84.9212 42.9357 85.0009 41.4689 85.0008 40.001C85.0033 36.5756 84.5667 33.164 83.7014 29.8496C83.6911 29.8175 83.6821 29.7857 83.6734 29.7531L83.6726 29.7523Z" fill="#FFBA7E"/>
</g>
<defs>
<filter id="filter0_d" x="0.998749" y="0" width="88.0033" height="88.0004" filterUnits="userSpaceOnUse" color-interpolation-filters="sRGB">
<feFlood flood-opacity="0" result="BackgroundImageFix"/>
<feColorMatrix in="SourceAlpha" type="matrix" values="0 0 0 0 0 0 0 0 0 0 0 0 0 0 0 0 0 0 127 0"/>
<feOffset dy="4"/>
<feGaussianBlur stdDeviation="2"/>
<feColorMatrix type="matrix" values="0 0 0 0 0 0 0 0 0 0 0 0 0 0 0 0 0 0 0.25 0"/>
<feBlend mode="normal" in2="BackgroundImageFix" result="effect1_dropShadow"/>
<feBlend mode="normal" in="SourceGraphic" in2="effect1_dropShadow" result="shape"/>
</filter>
</defs>
</svg>
