<svg width="43" height="69" viewBox="0 0 43 69" fill="none" xmlns="http://www.w3.org/2000/svg">
<path d="M30.7879 68.9985H12.1671C11.6119 68.9989 11.0757 68.7949 10.6601 68.4251C10.2445 68.0552 9.97827 67.5453 9.91175 66.9916L6.75385 40.5926H36.2012L33.0433 66.9916C32.9768 67.5453 32.7105 68.0552 32.2949 68.4251C31.8793 68.7949 31.3432 68.9989 30.7879 68.9985Z" fill="#FBD490"/>
<path d="M36.7371 40.5937H6.21754C5.17652 40.6119 4.17092 40.2141 3.42185 39.4878C2.67279 38.7616 2.2416 37.7662 2.22311 36.7207L1.0907 30.7119H41.8625L40.7301 36.7207C40.7212 37.2383 40.6108 37.7491 40.4053 38.2239C40.1998 38.6987 39.9032 39.1282 39.5324 39.4879C39.1616 39.8475 38.7239 40.1303 38.2443 40.32C37.7647 40.5097 37.2525 40.6027 36.7371 40.5937Z" fill="#EEAF4B"/>
<path d="M1.78183 30.7115H41.2182C42.3593 29.4678 43 28.0967 43 26.6543C43 24.64 41.7617 22.7649 39.6343 21.1841C39.767 20.7376 39.8349 20.2742 39.8359 19.8082C39.8359 17.2955 37.8634 15.0187 34.6638 13.3464C34.6638 13.3464 34.7486 -1.1013 23.018 0.06586C23.018 0.06586 26.8007 6.21778 21.5005 6.27204C14.1172 6.35107 8.13101 8.98292 8.13101 12.3238C8.13101 12.6734 9.67062 13.0157 9.79608 13.3475C6.59611 15.0201 3.16407 17.2976 3.16407 19.8104C3.16407 20.2773 4.74539 20.7369 4.87701 21.1863C2.74962 22.7664 0 24.6422 0 26.6568C0 28.0982 0.64072 29.4689 1.78183 30.7115Z" fill="#F2ECD3"/>
<path d="M18.4043 14.6567H14.7148C14.3887 14.6567 14.0759 14.5266 13.8452 14.295C13.6146 14.0634 13.485 13.7492 13.485 13.4217C13.485 13.0941 13.6146 12.78 13.8452 12.5483C14.0759 12.3167 14.3887 12.1866 14.7148 12.1866H18.4043C18.7305 12.1866 19.0433 12.3167 19.2739 12.5483C19.5045 12.78 19.6341 13.0941 19.6341 13.4217C19.6341 13.7492 19.5045 14.0634 19.2739 14.295C19.0433 14.5266 18.7305 14.6567 18.4043 14.6567Z" fill="#FBD490"/>
<path d="M29.4717 14.6567H27.0121C26.686 14.6567 26.3732 14.5266 26.1425 14.295C25.9119 14.0634 25.7823 13.7492 25.7823 13.4217C25.7823 13.0941 25.9119 12.78 26.1425 12.5483C26.3732 12.3167 26.686 12.1866 27.0121 12.1866H29.4717C29.7978 12.1866 30.1106 12.3167 30.3412 12.5483C30.5719 12.78 30.7014 13.0941 30.7014 13.4217C30.7014 13.7492 30.5719 14.0634 30.3412 14.295C30.1106 14.5266 29.7978 14.6567 29.4717 14.6567Z" fill="#FBD490"/>
<path d="M18.3992 22.0669H17.1743C17.0129 22.0669 16.8529 22.0349 16.7037 21.9729C16.5545 21.9108 16.419 21.8198 16.3048 21.7051C16.1906 21.5904 16.1 21.4543 16.0382 21.3044C15.9764 21.1546 15.9446 20.994 15.9446 20.8318C15.9446 20.6696 15.9764 20.509 16.0382 20.3591C16.1 20.2093 16.1906 20.0731 16.3048 19.9585C16.419 19.8438 16.5545 19.7528 16.7037 19.6907C16.8529 19.6287 17.0129 19.5967 17.1743 19.5967H18.3992C18.7254 19.5967 19.0382 19.7268 19.2688 19.9585C19.4994 20.1901 19.629 20.5042 19.629 20.8318C19.629 21.1594 19.4994 21.4735 19.2688 21.7051C19.0382 21.9367 18.7254 22.0669 18.3992 22.0669Z" fill="#FBD490"/>
<path d="M26.2866 22.0669H24.0326C23.8711 22.0669 23.7112 22.0349 23.562 21.9729C23.4128 21.9108 23.2772 21.8198 23.163 21.7051C23.0489 21.5904 22.9583 21.4543 22.8965 21.3044C22.8347 21.1546 22.8029 20.994 22.8029 20.8318C22.8029 20.6696 22.8347 20.509 22.8965 20.3591C22.9583 20.2093 23.0489 20.0731 23.163 19.9585C23.2772 19.8438 23.4128 19.7528 23.562 19.6907C23.7112 19.6287 23.8711 19.5967 24.0326 19.5967H26.2866C26.6127 19.5967 26.9255 19.7268 27.1561 19.9585C27.3868 20.1901 27.5163 20.5042 27.5163 20.8318C27.5163 21.1594 27.3868 21.4735 27.1561 21.7051C26.9255 21.9367 26.6127 22.0669 26.2866 22.0669Z" fill="#FBD490"/>
<path d="M33.1608 22.0669H31.9359C31.7744 22.0669 31.6145 22.0349 31.4653 21.9729C31.3161 21.9108 31.1806 21.8198 31.0664 21.7051C30.9522 21.5904 30.8616 21.4543 30.7998 21.3044C30.738 21.1546 30.7062 20.994 30.7062 20.8318C30.7062 20.6696 30.738 20.509 30.7998 20.3591C30.8616 20.2093 30.9522 20.0731 31.0664 19.9585C31.1806 19.8438 31.3161 19.7528 31.4653 19.6907C31.6145 19.6287 31.7744 19.5967 31.9359 19.5967H33.1608C33.487 19.5967 33.7998 19.7268 34.0304 19.9585C34.261 20.1901 34.3906 20.5042 34.3906 20.8318C34.3906 21.1594 34.261 21.4735 34.0304 21.7051C33.7998 21.9367 33.487 22.0669 33.1608 22.0669Z" fill="#FBD490"/>
<path d="M12.256 22.0669H11.0257C10.6995 22.0669 10.3867 21.9367 10.1561 21.7051C9.92546 21.4735 9.7959 21.1594 9.7959 20.8318C9.7959 20.5042 9.92546 20.1901 10.1561 19.9585C10.3867 19.7268 10.6995 19.5967 11.0257 19.5967H12.256C12.5821 19.5967 12.8949 19.7268 13.1256 19.9585C13.3562 20.1901 13.4857 20.5042 13.4857 20.8318C13.4857 21.1594 13.3562 21.4735 13.1256 21.7051C12.8949 21.9367 12.5821 22.0669 12.256 22.0669Z" fill="#FBD490"/>
<path d="M21.7329 63.1853L18.4043 59.8419L15.0752 63.1853L16.8157 64.9333L18.4057 63.3364L19.9957 64.9333L21.7329 63.1853Z" fill="#EEAF4B"/>
<path d="M30.3412 63.1853L27.0125 59.8419L23.6834 63.1853L25.4239 64.9333L27.0139 63.3364L28.6039 64.9333L30.3412 63.1853Z" fill="#EEAF4B"/>
<path d="M9.7968 50.9852L11.3868 52.5821L13.1273 50.8341L9.7968 47.4914L7.69769 49.5996L9.43819 51.3476L9.7968 50.9852Z" fill="#EEAF4B"/>
<path d="M16.8124 52.5821L18.4024 50.9852L19.9925 52.5821L21.7329 50.8341L18.4043 47.4914L15.0752 50.8348L16.8124 52.5821Z" fill="#EEAF4B"/>
<path d="M25.4206 52.5821L27.0107 50.9852L28.6007 52.5821L30.3412 50.8341L27.0125 47.4914L23.6834 50.8348L25.4206 52.5821Z" fill="#EEAF4B"/>
<path d="M10.1565 57.0101L11.897 58.7581L13.487 57.1612L15.077 58.7581L16.8175 57.0101L13.4856 53.6666L10.1565 57.0101Z" fill="#EEAF4B"/>
<path d="M18.7647 57.0101L20.5052 58.7581L22.0952 57.1612L23.6852 58.7581L25.4257 57.0101L22.0938 53.6666L18.7647 57.0101Z" fill="#EEAF4B"/>
<path d="M27.3726 57.0101L29.1131 58.7581L30.7031 57.1612L32.2931 58.7581L34.0336 57.0101L30.7016 53.6666L27.3726 57.0101Z" fill="#EEAF4B"/>
<path d="M13.4856 44.81L15.0756 46.4069L16.8161 44.6589L13.4856 41.3162L10.1565 44.6596L11.897 46.4076L13.4856 44.81Z" fill="#EEAF4B"/>
<path d="M22.0938 44.81L23.6838 46.4069L25.4243 44.6589L22.0938 41.3162L18.7647 44.6596L20.5052 46.4076L22.0938 44.81Z" fill="#EEAF4B"/>
<path d="M30.7016 44.81L32.2916 46.4069L34.0321 44.6589L30.7016 41.3162L27.3726 44.6596L29.1131 46.4076L30.7016 44.81Z" fill="#EEAF4B"/>
<path d="M33.5212 49.5996L32.2916 50.8345L34.0321 52.5825L34.8683 51.7427L34.9531 51.0362L33.5212 49.5996Z" fill="#EEAF4B"/>
<path d="M27.3726 68.1256L28.2428 68.9996H29.9833L30.7038 68.276L31.347 68.9221C31.7706 68.8145 32.1541 68.586 32.4511 68.2642C32.7481 67.9424 32.946 67.5412 33.0208 67.1089L30.7052 64.7833L27.3726 68.1256Z" fill="#EEAF4B"/>
<path d="M18.7647 68.1256L19.635 68.9996H21.3755L22.0959 68.2771L22.8164 68.9996H24.5569L25.4272 68.1256L22.0938 64.7822L18.7647 68.1256Z" fill="#EEAF4B"/>
<path d="M10.2917 67.9905C10.4982 68.3001 10.7771 68.554 11.1041 68.73C11.4311 68.9059 11.7962 68.9985 12.1671 68.9996H12.7647L13.4852 68.276L14.2057 68.9996H15.9462L16.8164 68.1256L13.4874 64.7822L10.2917 67.9905Z" fill="#EEAF4B"/>
<path d="M13.1248 63.1853L10.6652 60.7151L9.32361 62.0651L9.43239 62.9679L11.3904 64.9344L13.1248 63.1853Z" fill="#EEAF4B"/>
</svg>
