<svg width="60" height="64" viewBox="0 0 60 64" fill="none" xmlns="http://www.w3.org/2000/svg">
<g clip-path="url(#clip0)" filter="url(#filter0_d)">
<path d="M30.181 12.3737C46.0109 10.6329 51.1551 0.618852 51.1718 0.618852C51.4316 0.119689 52.0467 -0.0742663 52.5459 0.185461C52.7977 0.316444 52.9834 0.546644 53.0582 0.820365C58.3199 18.6654 55.4484 30.9689 49.4086 38.2681C47.0704 41.1132 44.0755 43.3473 40.682 44.778C37.5559 46.1038 34.1627 46.679 30.7743 46.4573C24.2867 46.0039 18.3645 42.539 15.6161 36.3313C14.9119 34.7444 14.4569 33.0584 14.2671 31.3327C13.8832 27.8738 14.5586 24.3798 16.2039 21.3131C17.9702 18.0406 20.7825 15.4548 24.1916 13.969C26.0938 13.1309 28.1142 12.5929 30.181 12.3737Z" fill="#45B549"/>
<path d="M51.0598 0.993865C51.0737 0.43145 51.5408 -0.0134169 52.1032 0.000437062C52.6656 0.014291 53.1105 0.481408 53.0966 1.04382C53.0956 1.08525 53.092 1.12639 53.086 1.16739C53.086 1.21777 52.196 12.9223 40.7713 24.7667L40.665 24.8787C37.981 27.6317 35.0358 30.1174 31.8712 32.301L38.7338 33.5773C39.2809 33.7093 39.6173 34.2596 39.4853 34.8065C39.3658 35.3016 38.8991 35.6324 38.3924 35.5812L29.4363 33.9019C21.2694 39.0741 7.42665 43.8488 6.21758 55.1167C6.14271 55.6744 5.62997 56.0658 5.07232 55.9909C4.54153 55.9197 4.15655 55.4496 4.19126 54.9152C5.63543 41.4083 19.3607 37.9322 28.619 32.0268L28.7478 31.9428C32.4426 29.6044 35.8652 26.8615 38.9521 23.7648L38.1405 15.7323C38.0656 15.1746 38.457 14.6619 39.0147 14.587C39.5723 14.5121 40.0851 14.9035 40.16 15.4612C40.163 15.4843 40.1654 15.5075 40.1668 15.5307L40.7825 21.7664C50.3041 11.0751 51.0542 1.03865 51.0598 0.993865Z" fill="#009549"/>
</g>
<defs>
<filter id="filter0_d" x="-2" y="0" width="64" height="64" filterUnits="userSpaceOnUse" color-interpolation-filters="sRGB">
<feFlood flood-opacity="0" result="BackgroundImageFix"/>
<feColorMatrix in="SourceAlpha" type="matrix" values="0 0 0 0 0 0 0 0 0 0 0 0 0 0 0 0 0 0 127 0"/>
<feOffset dy="4"/>
<feGaussianBlur stdDeviation="2"/>
<feColorMatrix type="matrix" values="0 0 0 0 0 0 0 0 0 0 0 0 0 0 0 0 0 0 0.25 0"/>
<feBlend mode="normal" in2="BackgroundImageFix" result="effect1_dropShadow"/>
<feBlend mode="normal" in="SourceGraphic" in2="effect1_dropShadow" result="shape"/>
</filter>
<clipPath id="clip0">
<rect width="56" height="56" fill="white" transform="translate(2)"/>
</clipPath>
</defs>
</svg>
