<svg width="92" height="75" viewBox="0 0 92 75" fill="none" xmlns="http://www.w3.org/2000/svg">
<path d="M45.2221 13.8633C44.8538 13.8633 44.5007 13.7167 44.2403 13.4559C43.98 13.1951 43.8337 12.8414 43.8337 12.4726C43.8337 10.1631 45.389 9.7984 45.389 8.77893C45.389 7.75946 43.8337 7.39619 43.8337 5.08433C43.8337 2.77246 45.389 2.4106 45.389 1.39066C45.389 1.02183 45.5353 0.668113 45.7957 0.407314C46.056 0.146515 46.4092 0 46.7774 0C47.1456 0 47.4988 0.146515 47.7591 0.407314C48.0195 0.668113 48.1658 1.02183 48.1658 1.39066C48.1658 3.70019 46.6105 4.06485 46.6105 5.08433C46.6105 6.1038 48.1658 6.468 48.1658 8.77893C48.1658 11.0899 46.6105 11.4531 46.6105 12.4726C46.6105 12.6552 46.5747 12.8361 46.5049 13.0049C46.4352 13.1736 46.3329 13.3269 46.204 13.4561C46.075 13.5852 45.9219 13.6877 45.7535 13.7575C45.585 13.8274 45.4044 13.8633 45.2221 13.8633Z" fill="#EFE2DD"/>
<path d="M24.3584 21.836C23.9902 21.8359 23.6371 21.6893 23.3768 21.4286C23.1164 21.1678 22.9701 20.8141 22.97 20.4453C22.97 18.1344 24.5253 17.7716 24.5253 16.7503C24.5253 15.7289 22.97 15.3661 22.97 13.0557C22.97 10.7452 24.5253 10.3815 24.5253 9.36108C24.5253 8.99238 24.6716 8.63878 24.9318 8.37806C25.1921 8.11735 25.5452 7.97089 25.9133 7.97089C26.2814 7.97089 26.6344 8.11735 26.8947 8.37806C27.155 8.63878 27.3012 8.99238 27.3012 9.36108C27.3012 11.6711 25.7463 12.0353 25.7463 13.0557C25.7463 14.0761 27.3012 14.4529 27.3012 16.7503C27.3012 19.0584 25.7463 19.4268 25.7463 20.4453C25.7462 20.8141 25.5999 21.1678 25.3396 21.4286C25.0792 21.6893 24.7261 21.8359 24.3579 21.836H24.3584Z" fill="#EFE2DD"/>
<path d="M66.0867 21.836C65.9044 21.836 65.724 21.7999 65.5556 21.73C65.3872 21.6601 65.2343 21.5576 65.1054 21.4285C64.9766 21.2994 64.8744 21.1461 64.8047 20.9774C64.735 20.8087 64.6992 20.6279 64.6992 20.4454C64.6992 18.1344 66.2541 17.7716 66.2541 16.7503C66.2541 15.729 64.6992 15.3662 64.6992 13.0557C64.6992 10.7452 66.2541 10.3815 66.2541 9.36109C66.2541 8.99226 66.4004 8.63854 66.6607 8.37774C66.9211 8.11694 67.2743 7.97043 67.6425 7.97043C68.0107 7.97043 68.3639 8.11694 68.6242 8.37774C68.8846 8.63854 69.0309 8.99226 69.0309 9.36109C69.0309 11.6711 67.4756 12.0353 67.4756 13.0557C67.4756 14.0761 69.0309 14.4529 69.0309 16.7503C69.0309 19.0584 67.4756 19.4268 67.4756 20.4454C67.4756 20.628 67.4398 20.8089 67.37 20.9776C67.3003 21.1464 67.198 21.2997 67.0691 21.4288C66.9401 21.558 66.787 21.6604 66.6186 21.7303C66.4501 21.8001 66.2695 21.8361 66.0872 21.836H66.0867Z" fill="#EFE2DD"/>
<path d="M74.7821 75H16.671C15.0709 75 13.5053 74.534 12.1649 73.6587C10.8245 72.7835 9.76701 71.5367 9.12132 70.0703L2.76471 55.6375H88.6885L82.3319 70.0703C81.6861 71.5367 80.6287 72.7834 79.2882 73.6587C77.9478 74.5339 76.3822 74.9999 74.7821 75Z" fill="#A8D3D8"/>
<path d="M82.5221 55.6375L76.1654 70.0703C75.5198 71.5367 74.4623 72.7835 73.1219 73.6587C71.7814 74.534 70.2158 75 68.6157 75H74.7822C76.3823 74.9999 77.9478 74.5339 79.2883 73.6587C80.6287 72.7834 81.6861 71.5367 82.3319 70.0703L88.6885 55.6375H82.5221Z" fill="#8EBAC5"/>
<path d="M90.8562 57.2456C90.6014 56.405 84.7497 44.8536 78.0695 38.3837C59.5953 20.4901 31.8514 20.4891 13.38 38.3837C6.67977 44.8741 0.851834 56.404 0.5961 57.2456H90.8562Z" fill="#FCCD7F"/>
<path d="M78.069 38.3832C68.0429 28.6719 55.2855 24.2331 42.7643 25.0635C53.3159 25.7621 63.7019 30.2004 72.1504 38.3832C78.8311 44.8536 84.6823 56.4045 84.9371 57.2451H90.8562C90.6009 56.4045 84.7497 44.8531 78.0695 38.3832H78.069Z" fill="#EAB765"/>
<path d="M92 57.5991C91.9727 56.8266 91.6763 56.0881 91.1624 55.5115C90.6484 54.935 89.9492 54.5567 89.186 54.4424C86.0265 53.8467 85.118 52.3331 80.4985 52.3331C74.7477 52.3331 74.7477 54.6785 68.997 54.6785C63.2462 54.6785 63.2476 52.3331 57.4978 52.3331C51.748 52.3331 51.748 54.6785 45.9977 54.6785C40.2474 54.6785 40.2478 52.3331 34.5008 52.3331C28.7538 52.3331 28.751 54.6785 23.0016 54.6785C17.2523 54.6785 17.2518 52.3331 11.5015 52.3331C6.88296 52.3331 5.97394 53.8467 2.8154 54.4424C2.05194 54.5564 1.35243 54.9346 0.838178 55.5111C0.32393 56.0877 0.0273921 56.8264 0 57.5991C0.0367793 58.3663 0.375384 59.0877 0.94176 59.6055C1.50813 60.1233 2.25619 60.3954 3.02231 60.3622H88.9758C89.742 60.3955 90.4901 60.1235 91.0565 59.6056C91.6229 59.0878 91.9615 58.3663 91.9981 57.5991H92Z" fill="#EAB765"/>
<path d="M45.9996 39.2579C45.6314 39.2578 45.2783 39.1112 45.0179 38.8504C44.7576 38.5897 44.6113 38.236 44.6111 37.8672V35.777C44.6111 35.4082 44.7574 35.0545 45.0178 34.7937C45.2782 34.5329 45.6313 34.3864 45.9996 34.3864C46.3678 34.3864 46.7209 34.5329 46.9813 34.7937C47.2417 35.0545 47.388 35.4082 47.388 35.777V37.8672C47.3878 38.236 47.2415 38.5897 46.9812 38.8504C46.7208 39.1112 46.3677 39.2578 45.9996 39.2579Z" fill="#FF8709"/>
<path d="M63.5736 41.0533C63.3682 41.0537 63.1653 41.0084 62.9795 40.9206C62.7937 40.8328 62.6298 40.7047 62.4995 40.5456L60.5699 38.1942C60.4514 38.0534 60.3619 37.8905 60.3067 37.7149C60.2516 37.5393 60.2318 37.3545 60.2485 37.1711C60.2652 36.9878 60.3181 36.8096 60.4041 36.6469C60.4901 36.4841 60.6075 36.3401 60.7495 36.2232C60.8915 36.1063 61.0552 36.0188 61.2313 35.9658C61.4073 35.9128 61.5921 35.8953 61.7749 35.9143C61.9577 35.9334 62.1349 35.9886 62.2963 36.0768C62.4576 36.165 62.5999 36.2845 62.7148 36.4281L64.6449 38.7796C64.8117 38.9832 64.9174 39.23 64.9497 39.4914C64.9819 39.7527 64.9395 40.0179 64.8272 40.2561C64.715 40.4942 64.5375 40.6956 64.3155 40.8367C64.0935 40.9778 63.8361 41.0529 63.5731 41.0533H63.5736Z" fill="#FF8709"/>
<path d="M28.4264 41.0533C28.1636 41.0527 27.9064 40.9774 27.6846 40.8361C27.4628 40.6949 27.2856 40.4934 27.1736 40.2553C27.0616 40.0172 27.0194 39.7521 27.0518 39.4908C27.0843 39.2296 27.1901 38.983 27.357 38.7796L29.2866 36.4281C29.4015 36.2845 29.5438 36.165 29.7051 36.0768C29.8665 35.9886 30.0437 35.9334 30.2265 35.9143C30.4094 35.8953 30.5941 35.9128 30.7702 35.9658C30.9462 36.0188 31.1099 36.1063 31.2519 36.2232C31.3939 36.3401 31.5113 36.4841 31.5973 36.6469C31.6833 36.8096 31.7362 36.9878 31.7529 37.1711C31.7696 37.3545 31.7498 37.5393 31.6947 37.7149C31.6395 37.8906 31.5501 38.0535 31.4315 38.1942L29.5019 40.5456C29.3715 40.7049 29.2073 40.8331 29.0213 40.9209C28.8353 41.0087 28.6321 41.0539 28.4264 41.0533Z" fill="#FF8709"/>
</svg>
