<svg width="72" height="71" viewBox="0 0 72 71" fill="none" xmlns="http://www.w3.org/2000/svg">
<g clip-path="url(#clip0)" filter="url(#filter0_d)">
<path d="M41.7121 26.1342C38.4358 15.9915 27.5476 10.4222 17.3926 13.6958C7.23763 16.9682 1.66151 27.843 4.93913 37.9858C8.21551 48.1284 19.1036 53.6978 29.2586 50.4242C39.4136 47.1518 44.9898 36.2769 41.7121 26.1342ZM23.3218 47.5018C11.7263 47.5018 4.33076 35.238 9.56963 25.0237C15.808 12.8524 33.7919 14.1892 38.0338 27.3193C41.2674 37.3302 33.7549 47.5018 23.3218 47.5018Z" fill="#FAC55A"/>
<path d="M67.0609 37.0221C63.7845 26.8795 52.8965 21.3101 42.7414 24.5837C32.5864 27.8561 27.0103 38.731 30.2879 48.8736C33.5643 59.0162 44.4524 64.5856 54.6074 61.312C64.7624 58.0396 70.3385 47.1647 67.0609 37.0221ZM48.6705 58.3896C37.075 58.3896 29.6795 46.1259 34.9184 35.9115C41.1568 23.7402 59.1407 25.077 63.3825 38.2071C66.6163 48.2181 59.1037 58.3896 48.6705 58.3896Z" fill="#F0A835"/>
<path d="M58.531 16.6334C58.4741 16.6749 58.3945 16.6492 58.3726 16.5824C58.198 16.048 57.4346 14.1374 55.2672 13.439C53.0108 12.7118 50.774 14.3211 49.98 16.7789C49.15 19.3482 49.9117 22.9001 53.4252 27.0257C54.1622 27.8911 55.3295 28.2674 56.434 27.9954C61.6991 26.6987 64.3957 24.2615 65.2257 21.692C66.0197 19.2342 65.1463 16.6226 62.8901 15.8955C60.7228 15.197 58.9853 16.3016 58.531 16.6334Z" fill="#DC527C"/>
<path d="M62.8901 15.8955C62.6215 15.8089 62.3596 15.7502 62.1059 15.7141C62.5508 16.7869 62.5883 18.1016 62.1766 19.3757C61.3466 21.9451 58.65 24.3824 53.3849 25.679C53.0631 25.7582 52.7361 25.7809 52.4159 25.754C52.7239 26.1715 53.0588 26.5952 53.4253 27.0256C54.1623 27.891 55.3295 28.2672 56.434 27.9952C61.6991 26.6986 64.3958 24.2614 65.2258 21.692C66.0198 19.2342 65.1465 16.6226 62.8901 15.8955Z" fill="#BF476C"/>
<path d="M14.8393 5.12029C14.8962 5.16179 14.9758 5.13616 14.9977 5.06929C15.1723 4.53491 15.9357 2.62429 18.103 1.92591C20.3594 1.19879 22.5963 2.80804 23.3903 5.26579C24.2203 7.83516 23.4585 11.387 19.945 15.5127C19.208 16.378 18.0408 16.7543 16.9363 16.4823C11.6712 15.1857 8.97453 12.7484 8.14453 10.1789C7.35053 7.72116 8.22391 5.10954 10.4802 4.38241C12.6473 3.68404 14.3848 4.78854 14.8393 5.12029Z" fill="#34B2CC"/>
<path d="M23.3901 5.26567C22.5961 2.80792 20.3592 1.19867 18.103 1.92579C17.3867 2.15667 16.8246 2.52004 16.3856 2.92229C17.8904 3.28279 19.1774 4.59679 19.7399 6.33804C20.5551 8.86154 19.8329 12.3329 16.4785 16.3647C16.629 16.4048 16.7814 16.4442 16.9362 16.4823C18.0407 16.7543 19.208 16.3782 19.945 15.5127C23.4584 11.3869 24.2201 7.83517 23.3901 5.26567Z" fill="#2E9EB5"/>
<path d="M40.0798 22.4446C39.1295 23.3958 38.179 24.347 37.228 25.2975C37.5333 25.9376 37.8046 26.6101 38.0338 27.3192C38.6178 29.1272 38.8496 30.94 38.7786 32.6976H42.6396C42.7114 30.5311 42.417 28.3157 41.712 26.134C41.2891 24.8247 40.7384 23.5923 40.0798 22.4446Z" fill="#FAC55A"/>
</g>
<defs>
<filter id="filter0_d" x="0" y="0" width="72" height="72" filterUnits="userSpaceOnUse" color-interpolation-filters="sRGB">
<feFlood flood-opacity="0" result="BackgroundImageFix"/>
<feColorMatrix in="SourceAlpha" type="matrix" values="0 0 0 0 0 0 0 0 0 0 0 0 0 0 0 0 0 0 127 0"/>
<feOffset dy="4"/>
<feGaussianBlur stdDeviation="2"/>
<feColorMatrix type="matrix" values="0 0 0 0 0 0 0 0 0 0 0 0 0 0 0 0 0 0 0.25 0"/>
<feBlend mode="normal" in2="BackgroundImageFix" result="effect1_dropShadow"/>
<feBlend mode="normal" in="SourceGraphic" in2="effect1_dropShadow" result="shape"/>
</filter>
<clipPath id="clip0">
<rect width="64" height="64" fill="white" transform="translate(4)"/>
</clipPath>
</defs>
</svg>
