<svg width="88" height="88" viewBox="0 0 88 88" fill="none" xmlns="http://www.w3.org/2000/svg">
<g filter="url(#filter0_d)">
<path d="M80.5115 25.8265C80.5408 25.8055 84.2183 24.7111 83.9898 22.0483C83.8889 20.8794 83.1526 19.3369 81.8944 19.5156C80.8541 19.6617 79.6388 18.4494 79.7874 17.4096L79.9336 16.4018C80.0798 15.3619 78.8669 14.1472 77.8266 14.2958L76.8198 14.4419C75.7795 14.588 74.5642 13.3757 74.7128 12.3358L74.859 11.3296C75.0052 10.2897 73.7923 9.07495 72.752 9.2235L71.7438 9.36962C70.7034 9.51574 69.4882 8.30344 69.6368 7.26356L69.783 6.25729C69.9292 5.21741 68.7163 4.00268 67.6759 4.15123L66.6678 4.29297C65.6274 4.43909 64.4121 3.22679 64.5607 2.18691L64.5861 2.01011C64.7508 0.810472 63.284 0.112512 62.1682 0.0131514C59.1723 -0.251811 58.2441 3.52487 58.2426 3.56871C58.2426 3.56871 53.4019 11.6681 52.1481 25.0379L59.4837 32.3677C59.4837 32.3677 71.5177 32.2849 80.5115 25.8265Z" fill="#EFC514"/>
<path d="M7.48847 54.1764C7.45923 54.1974 3.78169 55.2918 4.01023 57.9546C4.11109 59.1235 4.84738 60.6661 6.10555 60.4873C7.1459 60.3412 8.36119 61.5535 8.21257 62.5934L8.06639 63.6011C7.9202 64.641 9.13305 65.8557 10.1734 65.7072L11.1801 65.561C12.2205 65.4149 13.4358 66.6272 13.2872 67.6671L13.141 68.6734C12.9948 69.7132 14.2076 70.928 15.248 70.7794L16.2562 70.6333C17.2965 70.4872 18.5118 71.6995 18.3632 72.7394L18.217 73.7456C18.0708 74.7855 19.2837 76.0002 20.324 75.8517L21.3322 75.7056C22.3726 75.5595 23.5879 76.7718 23.4392 77.8116L23.4139 77.9884C23.2429 79.1866 24.7091 79.8846 25.8255 79.9854C28.8213 80.2504 29.7496 76.4737 29.7511 76.4298C29.7511 76.4298 34.5917 68.3305 35.8455 54.9606L28.5158 47.6323C28.5158 47.6323 16.4818 47.718 7.48847 54.1764Z" fill="#EFC514"/>
<path d="M63.0555 43.8668L47.8668 59.0485C46.8131 60.0958 45.3875 60.6837 43.9016 60.6837C42.4156 60.6837 40.99 60.0958 39.9363 59.0485L24.7456 43.8668C23.6979 42.8135 23.1098 41.3886 23.1098 39.9033C23.1098 38.418 23.6979 36.9931 24.7456 35.9398L39.9358 20.7562C40.9895 19.7089 42.4151 19.121 43.9011 19.121C45.387 19.121 46.8126 19.7089 47.8663 20.7562L63.055 35.9379C64.1034 36.9912 64.692 38.4165 64.6921 39.9022C64.6922 41.388 64.1038 42.8134 63.0555 43.8668Z" fill="#F9D70B"/>
<path d="M59.3175 47.6069L49.0407 57.8776L29.3461 31.3449L39.621 21.0747L59.3175 47.6069Z" fill="#ED3F32"/>
<path d="M57.9386 29.5511C57.6711 29.5516 57.4091 29.4756 57.1834 29.3321C56.9578 29.1885 56.7779 28.9834 56.6652 28.741C56.5525 28.4986 56.5115 28.2289 56.5472 27.964C56.5829 27.699 56.6937 27.4498 56.8665 27.2458C59.456 24.1841 61.7004 24.1067 64.301 24.017C65.1382 23.9878 66.0065 23.9581 67.0011 23.8334C67.1837 23.8106 67.3691 23.8239 67.5465 23.8727C67.724 23.9215 67.8901 24.0047 68.0354 24.1176C68.1807 24.2306 68.3023 24.371 68.3933 24.5309C68.4843 24.6908 68.5429 24.8671 68.5658 25.0496C68.5886 25.2322 68.5752 25.4174 68.5265 25.5948C68.4777 25.7722 68.3944 25.9383 68.2814 26.0835C68.1684 26.2287 68.028 26.3503 67.868 26.4412C67.708 26.5322 67.5316 26.5907 67.349 26.6136C66.2282 26.7553 65.2537 26.7875 64.398 26.8181C61.9991 26.9009 60.795 26.9414 59.0091 29.0547C58.8776 29.2104 58.7137 29.3355 58.5288 29.4212C58.3438 29.507 58.1424 29.5513 57.9386 29.5511Z" fill="#A46F3E"/>
<path d="M56.3992 28.1931C56.0888 28.1935 55.787 28.0909 55.5411 27.9015C55.2953 27.712 55.1192 27.4464 55.0407 27.1462C54.9621 26.846 54.9854 26.5282 55.1069 26.2427C55.2284 25.9571 55.4413 25.72 55.7121 25.5683C59.6898 23.343 62.2125 17.8484 61.579 12.7873C61.5562 12.6048 61.5695 12.4195 61.6183 12.2421C61.6671 12.0648 61.7504 11.8987 61.8633 11.7535C62.0915 11.4602 62.4269 11.2695 62.7958 11.2234C63.1646 11.1773 63.5367 11.2795 63.8301 11.5076C63.9754 11.6205 64.097 11.7609 64.188 11.9208C64.279 12.0808 64.3376 12.257 64.3604 12.4396C65.1401 18.6681 62.078 25.2181 57.0814 28.0149C56.873 28.1317 56.6381 28.1931 56.3992 28.1931Z" fill="#A46F3E"/>
<path d="M20.9107 56.1758C20.5546 56.1747 20.2123 56.0382 19.9532 55.794C19.6942 55.5498 19.5378 55.2162 19.5158 54.8609C19.4939 54.5057 19.608 54.1554 19.835 53.8812C20.062 53.607 20.385 53.4294 20.7382 53.3845C21.859 53.2442 22.8335 53.2106 23.6877 53.1799C26.0867 53.0971 27.2937 53.0552 29.0781 50.9433C29.3181 50.6596 29.661 50.4828 30.0314 50.4517C30.4019 50.4207 30.7694 50.5381 31.0533 50.778C31.3372 51.0178 31.5141 51.3606 31.5451 51.7309C31.5761 52.1011 31.4587 52.4685 31.2187 52.7523C28.6293 55.8139 26.3834 55.8899 23.7842 55.981C22.9471 56.0102 22.0821 56.0399 21.0856 56.1646C21.0276 56.1719 20.9692 56.1756 20.9107 56.1758Z" fill="#A46F3E"/>
<path d="M25.1175 68.7873C24.7761 68.7869 24.4466 68.662 24.1909 68.436C23.9351 68.21 23.7706 67.8985 23.7282 67.5599C22.9486 61.3299 26.0107 54.7799 31.0073 51.9847C31.3319 51.803 31.7154 51.7576 32.0734 51.8585C32.4314 51.9595 32.7347 52.1984 32.9165 52.5229C33.0982 52.8473 33.1436 53.2306 33.0426 53.5885C32.9417 53.9464 32.7026 54.2495 32.378 54.4312C28.4008 56.6551 25.8786 62.1511 26.5111 67.2127C26.534 67.3953 26.5206 67.5807 26.4717 67.7582C26.4228 67.9357 26.3394 68.1018 26.2263 68.247C26.1132 68.3923 25.9725 68.5138 25.8123 68.6047C25.6522 68.6955 25.4757 68.754 25.2929 68.7766C25.2347 68.7837 25.1761 68.7873 25.1175 68.7873Z" fill="#A46F3E"/>
</g>
<defs>
<filter id="filter0_d" x="0" y="-0.000164032" width="88" height="87.9989" filterUnits="userSpaceOnUse" color-interpolation-filters="sRGB">
<feFlood flood-opacity="0" result="BackgroundImageFix"/>
<feColorMatrix in="SourceAlpha" type="matrix" values="0 0 0 0 0 0 0 0 0 0 0 0 0 0 0 0 0 0 127 0"/>
<feOffset dy="4"/>
<feGaussianBlur stdDeviation="2"/>
<feColorMatrix type="matrix" values="0 0 0 0 0 0 0 0 0 0 0 0 0 0 0 0 0 0 0.25 0"/>
<feBlend mode="normal" in2="BackgroundImageFix" result="effect1_dropShadow"/>
<feBlend mode="normal" in="SourceGraphic" in2="effect1_dropShadow" result="shape"/>
</filter>
</defs>
</svg>
