<svg width="52" height="52" viewBox="0 0 52 52" fill="none" xmlns="http://www.w3.org/2000/svg">
<g filter="url(#filter0_d)">
<path d="M13.0532 26.0333C13.0934 26.0068 13.1387 25.9884 13.1814 25.9599C13.1387 25.9893 13.0932 26.0082 13.0532 26.0333Z" fill="#FFCD00"/>
<path d="M25.18 25.8294C25.2343 25.807 25.2923 25.7939 25.3493 25.7758C25.2932 25.7939 25.235 25.8065 25.18 25.8294Z" fill="#FFCD00"/>
<path d="M25.6159 25.7064C25.679 25.6954 25.7448 25.6924 25.8104 25.6864C25.7448 25.6915 25.6797 25.6945 25.6159 25.7064Z" fill="#FFCD00"/>
<path d="M38.2657 25.7398C38.3091 25.7508 38.3499 25.7663 38.3924 25.7791C38.351 25.7634 38.3087 25.7503 38.2657 25.7398Z" fill="#FFCD00"/>
<path d="M36.5197 26.0333C36.5599 26.0068 36.6053 25.9884 36.6479 25.9599C36.6053 25.9893 36.5599 26.0082 36.5197 26.0333Z" fill="#FFCD00"/>
<path d="M13.4466 25.8294C13.501 25.807 13.5589 25.7939 13.6159 25.7758C13.5598 25.7939 13.5016 25.8065 13.4466 25.8294Z" fill="#FFCD00"/>
<path d="M37.8947 25.6724H37.8213C37.891 25.6747 37.9605 25.6816 38.0292 25.6931C37.9825 25.6904 37.941 25.6756 37.8947 25.6724Z" fill="#FFCD00"/>
<path d="M37.349 25.7064C37.4121 25.6954 37.4779 25.6924 37.5435 25.6864C37.4779 25.6915 37.4128 25.6945 37.349 25.7064Z" fill="#FFCD00"/>
<path d="M36.9134 25.8294C36.9677 25.807 37.0257 25.7939 37.0827 25.7758C37.0266 25.7939 36.9684 25.8065 36.9134 25.8294Z" fill="#FFCD00"/>
<path d="M26.5326 25.7398C26.5759 25.7508 26.6168 25.7663 26.6592 25.7791C26.6179 25.7634 26.5756 25.7503 26.5326 25.7398Z" fill="#FFCD00"/>
<path d="M13.8825 25.7064C13.9456 25.6954 14.0114 25.6924 14.077 25.6864C14.0114 25.6915 13.9463 25.6945 13.8825 25.7064Z" fill="#FFCD00"/>
<path d="M24.7866 26.0333C24.8268 26.0068 24.8721 25.9884 24.9148 25.9599C24.8721 25.9893 24.8268 26.0082 24.7866 26.0333Z" fill="#FFCD00"/>
<path d="M14.4282 25.6724H14.3548C14.4245 25.6747 14.4939 25.6816 14.5627 25.6931C14.516 25.6904 14.4745 25.6756 14.4282 25.6724Z" fill="#FFCD00"/>
<path d="M14.7992 25.7398C14.8425 25.7508 14.8834 25.7663 14.9258 25.7791C14.8845 25.7634 14.8422 25.7503 14.7992 25.7398Z" fill="#FFCD00"/>
<path d="M26.1613 25.6724H26.0879C26.1576 25.6747 26.2271 25.6816 26.2959 25.6931C26.2492 25.6904 26.2076 25.6756 26.1613 25.6724Z" fill="#FFCD00"/>
<path d="M41.0038 33.396C40.3181 32.706 39.9332 31.7728 39.9331 30.8V27.9904C39.9374 27.5075 39.7915 27.0352 39.5156 26.6388C39.2397 26.2424 38.8474 25.9416 38.393 25.778C38.3504 25.7648 38.3095 25.7493 38.2664 25.7387C38.1879 25.7204 38.1085 25.7061 38.0286 25.696C37.9599 25.6871 37.8907 25.6785 37.8206 25.6756C37.7284 25.673 37.636 25.6764 37.5442 25.6857C37.4786 25.6918 37.4128 25.6947 37.3497 25.7057C37.2595 25.7246 37.1706 25.749 37.0834 25.7787C37.0272 25.7973 36.9684 25.8101 36.914 25.8323C36.8225 25.871 36.7338 25.916 36.6486 25.9671C36.6043 25.9887 36.5615 26.0132 36.5204 26.0405C36.2176 26.2393 35.9689 26.5101 35.7965 26.8286C35.6241 27.1471 35.5333 27.5034 35.5323 27.8656V29.3322C35.5361 29.8161 35.444 30.296 35.2615 30.7442C35.0789 31.1924 34.8094 31.6 34.4686 31.9435C34.1277 32.287 33.7222 32.5597 33.2755 32.7458C32.8288 32.9318 32.3496 33.0276 31.8657 33.0276C31.3817 33.0276 30.9026 32.9318 30.4559 32.7458C30.0091 32.5597 29.6036 32.287 29.2628 31.9435C28.9219 31.6 28.6525 31.1924 28.4699 30.7442C28.2873 30.296 28.1953 29.8161 28.1991 29.3322V27.9904C28.2034 27.5075 28.0575 27.0352 27.7816 26.6388C27.5057 26.2424 27.1134 25.9416 26.659 25.778C26.6163 25.7648 26.5755 25.7493 26.5323 25.7387C26.4539 25.7204 26.3745 25.7061 26.2945 25.696C26.2258 25.6871 26.1566 25.6785 26.0866 25.6756C25.9943 25.6731 25.902 25.6764 25.8101 25.6857C25.7446 25.6918 25.6788 25.6947 25.6157 25.7057C25.5255 25.7246 25.4365 25.749 25.3493 25.7787C25.2932 25.7973 25.2343 25.8101 25.18 25.8323C25.0885 25.871 24.9998 25.916 24.9146 25.9671C24.8702 25.9887 24.8274 26.0132 24.7863 26.0405C24.4836 26.2394 24.2349 26.5101 24.0625 26.8286C23.89 27.1471 23.7993 27.5034 23.7982 27.8656V32.2655C23.802 32.7494 23.71 33.2293 23.5274 33.6775C23.3448 34.1257 23.0754 34.5333 22.7345 34.8768C22.3937 35.2203 21.9882 35.493 21.5414 35.6791C21.0947 35.8651 20.6156 35.9609 20.1316 35.9609C19.6477 35.9609 19.1685 35.8651 18.7218 35.6791C18.2751 35.493 17.8696 35.2203 17.5287 34.8768C17.1879 34.5333 16.9184 34.1257 16.7358 33.6775C16.5533 33.2293 16.4612 32.7494 16.465 32.2655V27.9904C16.4693 27.5075 16.3234 27.0352 16.0475 26.6388C15.7716 26.2424 15.3793 25.9416 14.9249 25.778C14.8823 25.7648 14.8414 25.7493 14.7983 25.7387C14.7198 25.7204 14.6404 25.7061 14.5605 25.696C14.4917 25.6871 14.4226 25.6785 14.3525 25.6756C14.2603 25.6731 14.1679 25.6764 14.0761 25.6857C14.0105 25.6918 13.9447 25.6947 13.8816 25.7057C13.7914 25.7246 13.7025 25.749 13.6153 25.7787C13.5591 25.7973 13.5003 25.8101 13.4459 25.8323C13.3544 25.871 13.2657 25.916 13.1805 25.9671C13.1362 25.9887 13.0934 26.0132 13.0523 26.0405C12.7495 26.2393 12.5008 26.5101 12.3284 26.8286C12.156 27.1471 12.0652 27.5034 12.0642 27.8656V30.7989C12.0657 31.2808 11.9718 31.7583 11.7881 32.2038C11.6043 32.6493 11.3343 33.0541 10.9935 33.3949C10.6528 33.7357 10.2479 34.0057 9.80241 34.1895C9.35687 34.3732 8.8794 34.4671 8.39746 34.4656C7.89422 34.4652 7.39623 34.3633 6.93329 34.166V43.2668H45.0667V34.166C44.6031 34.364 44.1042 34.4663 43.6001 34.4667C42.6273 34.4666 41.694 34.0817 41.0041 33.396H41.0038Z" fill="#FFCD00"/>
<path d="M44.3333 21.2667H7.66672C6.88878 21.2667 6.14272 21.5758 5.59264 22.1259C5.04255 22.676 4.73349 23.422 4.73343 24.2V30.8C4.73349 31.7728 5.11842 32.706 5.80417 33.396C6.31699 33.9101 6.97091 34.2603 7.68304 34.4023C8.39517 34.5444 9.13343 34.4717 9.80423 34.1937C10.475 33.9156 11.0482 33.4446 11.451 32.8405C11.8538 32.2363 12.0682 31.5261 12.0669 30.8V27.8667C12.0664 27.5035 12.1564 27.1459 12.3286 26.8261C12.5008 26.5063 12.7499 26.2344 13.0534 26.0349C13.0936 26.0084 13.139 25.99 13.1816 25.9615C13.2669 25.9106 13.3556 25.8655 13.4471 25.8267C13.5014 25.8043 13.5593 25.7917 13.6164 25.7733C13.7036 25.7435 13.7925 25.7189 13.8827 25.6998C13.9465 25.6888 14.0116 25.6859 14.0772 25.6801C14.1428 25.6742 14.2018 25.6675 14.267 25.6675C14.2964 25.6675 14.3242 25.6747 14.3536 25.6765C14.3779 25.6745 14.4023 25.6745 14.4266 25.6765C14.4716 25.6811 14.5162 25.6886 14.5602 25.6989C14.6402 25.709 14.7196 25.7233 14.7981 25.7416C14.8414 25.7535 14.8829 25.7674 14.9247 25.7809C15.3706 25.9187 15.7608 26.1954 16.0383 26.5706C16.3158 26.9459 16.466 27.4 16.467 27.8667V32.2666C16.4632 32.7505 16.5553 33.2304 16.7379 33.6786C16.9204 34.1268 17.1899 34.5344 17.5308 34.8779C17.8716 35.2214 18.2771 35.4941 18.7238 35.6802C19.1706 35.8662 19.6497 35.962 20.1336 35.962C20.6176 35.962 21.0967 35.8662 21.5435 35.6802C21.9902 35.4941 22.3957 35.2214 22.7365 34.8779C23.0774 34.5344 23.3469 34.1268 23.5294 33.6786C23.712 33.2304 23.804 32.7505 23.8003 32.2666V27.8667C23.7998 27.5035 23.8897 27.1459 24.062 26.8261C24.2342 26.5063 24.4833 26.2344 24.7868 26.0349C24.827 26.0084 24.8723 25.99 24.915 25.9615C25.0003 25.9106 25.089 25.8655 25.1804 25.8267C25.2348 25.8043 25.2927 25.7917 25.3498 25.7733C25.437 25.7435 25.5259 25.7189 25.6161 25.6998C25.6799 25.6888 25.745 25.6859 25.8106 25.6801C25.8762 25.6742 25.9352 25.6675 26.0003 25.6675C26.0298 25.6675 26.0576 25.6747 26.087 25.6765C26.1113 25.6745 26.1357 25.6745 26.16 25.6765C26.205 25.6811 26.2496 25.6886 26.2936 25.6989C26.3736 25.709 26.453 25.7233 26.5314 25.7416C26.5748 25.7535 26.6163 25.7674 26.6581 25.7809C27.104 25.9187 27.4942 26.1954 27.7717 26.5706C28.0491 26.9459 28.1994 27.4 28.2004 27.8667V29.3333C28.208 30.3008 28.5976 31.2261 29.2844 31.9075C29.9712 32.589 30.8995 32.9714 31.867 32.9714C32.8345 32.9714 33.7628 32.589 34.4496 31.9075C35.1364 31.2261 35.5261 30.3008 35.5336 29.3333V27.8667C35.5332 27.5035 35.6231 27.1459 35.7953 26.8261C35.9676 26.5063 36.2167 26.2344 36.5202 26.0349C36.5604 26.0084 36.6057 25.99 36.6484 25.9615C36.7337 25.9106 36.8224 25.8655 36.9138 25.8267C36.9682 25.8043 37.0261 25.7917 37.0831 25.7733C37.1704 25.7435 37.2593 25.7189 37.3495 25.6998C37.4133 25.6888 37.4784 25.6859 37.544 25.6801C37.6095 25.6742 37.6686 25.6675 37.7337 25.6675C37.7631 25.6675 37.791 25.6747 37.8204 25.6765C37.8447 25.6745 37.8691 25.6745 37.8934 25.6765C37.9384 25.6811 37.983 25.6886 38.027 25.6989C38.107 25.709 38.1863 25.7233 38.2648 25.7416C38.3082 25.7535 38.3497 25.7674 38.3915 25.7809C38.8374 25.9187 39.2276 26.1954 39.505 26.5706C39.7825 26.9459 39.9327 27.4 39.9338 27.8667V30.8C39.9323 31.2819 40.0261 31.7594 40.2099 32.2049C40.3936 32.6505 40.6637 33.0553 41.0044 33.396C41.3452 33.7368 41.75 34.0069 42.1956 34.1906C42.6411 34.3743 43.1186 34.4682 43.6005 34.4667C44.1047 34.4663 44.6035 34.364 45.0672 34.166C45.7204 33.8782 46.2761 33.4069 46.6667 32.8095C47.0574 32.212 47.2662 31.514 47.2679 30.8002V24.2002C47.2679 23.8149 47.192 23.4333 47.0445 23.0773C46.897 22.7213 46.6808 22.3979 46.4083 22.1255C46.1358 21.8531 45.8123 21.637 45.4562 21.4897C45.1002 21.3423 44.7186 21.2665 44.3333 21.2667Z" fill="#FF3051"/>
<path d="M10.9961 33.396C11.6818 32.706 12.0667 31.7727 12.0667 30.8V32.2666C12.0704 32.7506 11.9784 33.2304 11.7958 33.6786C11.6133 34.1268 11.3438 34.5344 11.0029 34.8779C10.6621 35.2215 10.2566 35.4941 9.80986 35.6802C9.36313 35.8662 8.88398 35.962 8.40004 35.962C7.91611 35.962 7.43696 35.8662 6.99023 35.6802C6.54349 35.4941 6.13801 35.2215 5.79715 34.8779C5.4563 34.5344 5.18682 34.1268 5.00426 33.6786C4.82169 33.2304 4.72965 32.7506 4.73343 32.2666V30.8C4.73349 31.7728 5.11842 32.706 5.80417 33.396C6.14435 33.7375 6.54903 34.0081 6.99469 34.1919C7.44034 34.3757 7.91809 34.4691 8.40016 34.4667C9.37294 34.4666 10.3062 34.0817 10.9961 33.396Z" fill="#E52B49"/>
<path d="M22.7293 34.8626C23.415 34.1726 23.7998 33.2394 23.7998 32.2666V33.7333C23.8036 34.2172 23.7116 34.6971 23.529 35.1452C23.3464 35.5934 23.0769 36.001 22.7361 36.3446C22.3952 36.6881 21.9898 36.9607 21.543 37.1468C21.0963 37.3329 20.6171 37.4287 20.1332 37.4287C19.6493 37.4287 19.1701 37.3329 18.7234 37.1468C18.2766 36.9607 17.8712 36.6881 17.5303 36.3446C17.1895 36.001 16.92 35.5934 16.7374 35.1452C16.5548 34.6971 16.4628 34.2172 16.4666 33.7333V32.2666C16.4673 32.9919 16.6829 33.7006 17.0861 34.3035C17.4892 34.9063 18.0619 35.3763 18.7319 35.654C19.4018 35.9317 20.139 36.0047 20.8505 35.8639C21.5619 35.723 22.2157 35.3746 22.7293 34.8626Z" fill="#E52B49"/>
<path d="M34.4627 31.9293C35.1483 31.2393 35.5332 30.3061 35.5332 29.3333V30.8C35.5256 31.7674 35.136 32.6927 34.4492 33.3742C33.7624 34.0556 32.8341 34.438 31.8666 34.438C30.8991 34.438 29.9708 34.0556 29.284 33.3742C28.5972 32.6927 28.2075 31.7674 28.2 30.8V29.3333C28.2007 30.0586 28.4163 30.7673 28.8194 31.3702C29.2226 31.973 29.7953 32.443 30.4653 32.7207C31.1352 32.9984 31.8724 33.0714 32.5839 32.9306C33.2953 32.7897 33.9491 32.4413 34.4627 31.9293Z" fill="#E52B49"/>
<path d="M47.2666 30.8V32.2666C47.2649 32.9805 47.056 33.6785 46.6654 34.2759C46.2747 34.8734 45.7191 35.3446 45.0658 35.6324C44.6022 35.8305 44.1033 35.9327 43.5992 35.9331C43.1173 35.9345 42.64 35.8406 42.1946 35.6568C41.7491 35.473 41.3444 35.203 41.0038 34.8622C40.6631 34.5215 40.3931 34.1167 40.2094 33.6713C40.0257 33.2258 39.9319 32.7485 39.9333 32.2666V30.8C39.9319 31.2819 40.0257 31.7594 40.2094 32.2049C40.3932 32.6505 40.6632 33.0553 41.004 33.3961C41.3448 33.7368 41.7496 34.0069 42.1951 34.1906C42.6407 34.3744 43.1181 34.4682 43.6001 34.4667C44.1042 34.4663 44.6031 34.364 45.0667 34.166C45.7198 33.878 46.2753 33.4067 46.6658 32.8092C47.0563 32.2117 47.265 31.5138 47.2666 30.8Z" fill="#E52B49"/>
<path d="M47.2666 44H4.73343C4.54117 43.9966 4.35791 43.9179 4.22313 43.7807C4.08835 43.6436 4.01283 43.459 4.01283 43.2667C4.01283 43.0744 4.08835 42.8898 4.22313 42.7526C4.35791 42.6155 4.54117 42.5367 4.73343 42.5334H47.2663C47.4586 42.5367 47.6419 42.6155 47.7766 42.7526C47.9114 42.8898 47.9869 43.0744 47.9869 43.2667C47.9869 43.459 47.9114 43.6436 47.7766 43.7807C47.6419 43.9179 47.4586 43.9966 47.2663 44H47.2666Z" fill="#BCBEC0"/>
<path d="M36.1784 26.312C36.2826 26.2085 36.397 26.1157 36.5197 26.0349C36.397 26.1157 36.2826 26.2085 36.1784 26.312Z" fill="#FFCD00"/>
<path d="M16.4666 27.9907V27.8667C16.4662 27.3998 16.3165 26.9453 16.0394 26.5696C15.7624 26.1939 15.3724 25.9166 14.9265 25.7782C15.3809 25.9419 15.7732 26.2427 16.0491 26.639C16.325 27.0354 16.4709 27.5077 16.4666 27.9907Z" fill="#FFCD00"/>
<path d="M26.2934 25.696C26.3734 25.7061 26.4527 25.7204 26.5312 25.7387C26.4527 25.7204 26.3734 25.7061 26.2934 25.696Z" fill="#FFCD00"/>
<path d="M28.1997 27.9907V27.8667C28.1993 27.3998 28.0497 26.9453 27.7726 26.5696C27.4955 26.1939 27.1055 25.9166 26.6597 25.7782C27.114 25.9419 27.5063 26.2427 27.7822 26.639C28.0582 27.0354 28.2041 27.5077 28.1997 27.9907Z" fill="#FFCD00"/>
<path d="M39.9331 27.9907V27.8667C39.9327 27.3998 39.7831 26.9453 39.506 26.5696C39.2289 26.1939 38.8389 25.9166 38.393 25.7782C38.8474 25.9419 39.2397 26.2427 39.5156 26.639C39.7915 27.0354 39.9374 27.5077 39.9331 27.9907Z" fill="#FFCD00"/>
<path d="M25.3489 25.7757C25.4361 25.7461 25.5251 25.7216 25.6152 25.7023C25.5251 25.7216 25.4361 25.7461 25.3489 25.7757Z" fill="#FFCD00"/>
<path d="M14.2667 25.6666C14.2016 25.6666 14.1408 25.6805 14.077 25.6857C14.1688 25.6764 14.2612 25.673 14.3534 25.6756C14.324 25.6738 14.2962 25.6666 14.2667 25.6666Z" fill="#FFCD00"/>
<path d="M14.56 25.696C14.64 25.7061 14.7194 25.7204 14.7978 25.7387C14.7194 25.7204 14.64 25.7061 14.56 25.696Z" fill="#FFCD00"/>
<path d="M37.7333 25.6666C37.6681 25.6666 37.6073 25.6805 37.5435 25.6857C37.6353 25.6764 37.7277 25.673 37.82 25.6756C37.7905 25.6738 37.7627 25.6666 37.7333 25.6666Z" fill="#FFCD00"/>
<path d="M13.1812 25.9653C13.2664 25.9142 13.3551 25.8692 13.4466 25.8306C13.3551 25.8692 13.2664 25.9142 13.1812 25.9653Z" fill="#FFCD00"/>
<path d="M36.6479 25.9653C36.7332 25.9142 36.8219 25.8692 36.9134 25.8306C36.8219 25.8692 36.7332 25.9142 36.6479 25.9653Z" fill="#FFCD00"/>
<path d="M37.082 25.7757C37.1693 25.7461 37.2582 25.7216 37.3484 25.7023C37.2582 25.7216 37.1693 25.7461 37.082 25.7757Z" fill="#FFCD00"/>
<path d="M12.7118 26.312C12.8161 26.2085 12.9305 26.1157 13.0532 26.0349C12.9305 26.1157 12.8161 26.2085 12.7118 26.312Z" fill="#FFCD00"/>
<path d="M13.6155 25.7757C13.7028 25.7461 13.7917 25.7216 13.8818 25.7023C13.7917 25.7216 13.7028 25.7461 13.6155 25.7757Z" fill="#FFCD00"/>
<path d="M25.9999 25.6666C25.9348 25.6666 25.8739 25.6805 25.8101 25.6857C25.902 25.6764 25.9943 25.673 26.0866 25.6756C26.0572 25.6738 26.0293 25.6666 25.9999 25.6666Z" fill="#FFCD00"/>
<path d="M24.4452 26.312C24.5495 26.2085 24.6638 26.1157 24.7866 26.0349C24.6638 26.1157 24.5495 26.2085 24.4452 26.312Z" fill="#FFCD00"/>
<path d="M38.0266 25.696C38.1065 25.7061 38.1859 25.7204 38.2644 25.7387C38.1859 25.7204 38.1065 25.7061 38.0266 25.696Z" fill="#FFCD00"/>
<path d="M24.9146 25.9653C24.9998 25.9142 25.0885 25.8692 25.18 25.8306C25.0885 25.8692 24.9998 25.9142 24.9146 25.9653Z" fill="#FFCD00"/>
<path d="M23.8 11.7334H28.2V21.2667H23.8V11.7334Z" fill="#FF9811"/>
<path d="M23.0666 5.86658C23.0666 6.64453 23.3756 7.39063 23.9257 7.94073C24.4758 8.49082 25.2219 8.79987 25.9999 8.79987C26.7778 8.79987 27.5239 8.49082 28.074 7.94073C28.6241 7.39063 28.9332 6.64453 28.9332 5.86658C28.9332 4.24678 25.9999 0 25.9999 0C25.9999 0 23.0666 4.24678 23.0666 5.86658Z" fill="#FF6243"/>
<path d="M36.2666 13.2H40.6665V21.2667H36.2666V13.2Z" fill="#FF9811"/>
<path d="M35.5332 7.33322C35.5332 8.11118 35.8422 8.85727 36.3923 9.40737C36.9424 9.95747 37.6885 10.2665 38.4665 10.2665C39.2444 10.2665 39.9905 9.95747 40.5406 9.40737C41.0907 8.85727 41.3998 8.11118 41.3998 7.33322C41.3998 5.7132 38.4665 1.46664 38.4665 1.46664C38.4665 1.46664 35.5332 5.71342 35.5332 7.33322Z" fill="#FF6243"/>
<path d="M11.3332 13.2H15.7332V21.2667H11.3332V13.2Z" fill="#FF9811"/>
<path d="M16.4666 7.33322C16.4661 8.04662 16.2061 8.73548 15.735 9.27123C15.2639 9.80698 14.614 10.153 13.9065 10.2447H13.8993C13.7777 10.2597 13.6552 10.2672 13.5326 10.2672C12.7547 10.2669 12.0087 9.95771 11.4587 9.4075C10.9088 8.85729 10.5999 8.11116 10.6 7.33322C10.6 5.71275 13.5333 1.46664 13.5333 1.46664C13.5333 1.46664 13.6802 1.67931 13.9 2.01661C14.6921 3.21939 16.4666 6.07183 16.4666 7.33322Z" fill="#FF6243"/>
<path d="M13.9 10.2449C13.7784 10.2599 13.6559 10.2674 13.5333 10.2674C13.148 10.2674 12.7666 10.1915 12.4107 10.044C12.0547 9.89653 11.7314 9.68041 11.459 9.40796C11.1866 9.13552 10.9705 8.81208 10.8232 8.45614C10.6758 8.10019 10.6 7.7187 10.6 7.33344C10.6 5.71275 13.5333 1.46664 13.5333 1.46664C13.5333 1.46664 13.6802 1.67931 13.9 2.01661C13.108 3.21939 11.3334 6.07183 11.3334 7.33322C11.3343 8.04758 11.5953 8.73717 12.0677 9.27306C12.54 9.80895 13.1914 10.1544 13.9 10.2449Z" fill="#E5583C"/>
<path d="M26.3666 8.77808C26.2449 8.79308 26.1225 8.80058 25.9999 8.80054C25.6146 8.80051 25.2332 8.7246 24.8772 8.57713C24.5213 8.42967 24.1979 8.21354 23.9256 7.94109C23.6532 7.66865 23.4371 7.34522 23.2897 6.98927C23.1424 6.63332 23.0665 6.25183 23.0666 5.86658C23.0666 4.2461 25.9999 0 25.9999 0C25.9999 0 26.1468 0.212665 26.3666 0.549963C25.5746 1.75274 23.8 4.60519 23.8 5.86658C23.8009 6.5809 24.062 7.27043 24.5343 7.80628C25.0067 8.34212 25.658 8.68759 26.3666 8.77808Z" fill="#E5583C"/>
<path d="M38.8332 10.2449C38.7115 10.2599 38.5891 10.2674 38.4665 10.2674C38.0812 10.2674 37.6997 10.1915 37.3438 10.044C36.9879 9.89653 36.6645 9.68041 36.3922 9.40796C36.1198 9.13552 35.9037 8.81208 35.7563 8.45614C35.609 8.10019 35.5331 7.7187 35.5332 7.33344C35.5332 5.71275 38.4665 1.46664 38.4665 1.46664C38.4665 1.46664 38.6133 1.67931 38.8332 2.01661C38.0411 3.21939 36.2666 6.07183 36.2666 7.33322C36.2675 8.04758 36.5285 8.73717 37.0008 9.27306C37.4732 9.80895 38.1246 10.1544 38.8332 10.2449Z" fill="#E5583C"/>
<path d="M11.3332 13.2H15.7332V14.6667H11.3332V13.2Z" fill="#E5890F"/>
<path d="M23.8 11.7334H28.2V13.2H23.8V11.7334Z" fill="#E5890F"/>
<path d="M36.2666 13.2H40.6665V14.6667H36.2666V13.2Z" fill="#E5890F"/>
</g>
<defs>
<filter id="filter0_d" x="0" y="0" width="52" height="52" filterUnits="userSpaceOnUse" color-interpolation-filters="sRGB">
<feFlood flood-opacity="0" result="BackgroundImageFix"/>
<feColorMatrix in="SourceAlpha" type="matrix" values="0 0 0 0 0 0 0 0 0 0 0 0 0 0 0 0 0 0 127 0"/>
<feOffset dy="4"/>
<feGaussianBlur stdDeviation="2"/>
<feColorMatrix type="matrix" values="0 0 0 0 0 0 0 0 0 0 0 0 0 0 0 0 0 0 0.25 0"/>
<feBlend mode="normal" in2="BackgroundImageFix" result="effect1_dropShadow"/>
<feBlend mode="normal" in="SourceGraphic" in2="effect1_dropShadow" result="shape"/>
</filter>
</defs>
</svg>
