<svg width="61" height="61" viewBox="0 0 61 61" fill="none" xmlns="http://www.w3.org/2000/svg">
<g clip-path="url(#clip0)" filter="url(#filter0_d)">
<path d="M38.2642 4.6585C38.2636 5.62008 37.9646 6.55777 37.4083 7.34211C36.852 8.12645 36.0659 8.71875 35.1586 9.03724V10.8694C35.1586 11.2813 34.995 11.6762 34.7038 11.9674C34.4126 12.2586 34.0177 12.4222 33.6058 12.4222C33.194 12.4222 32.799 12.2586 32.5078 11.9674C32.2166 11.6762 32.053 11.2813 32.053 10.8694V7.7636C32.0509 7.55911 32.0896 7.35626 32.1669 7.16692C32.2442 6.97758 32.3585 6.80557 32.5031 6.66097C32.6477 6.51637 32.8197 6.40208 33.009 6.3248C33.1984 6.24752 33.4012 6.20881 33.6057 6.21093C33.9128 6.21093 34.213 6.11987 34.4683 5.94926C34.7237 5.77865 34.9227 5.53615 35.0402 5.25244C35.1577 4.96872 35.1885 4.65653 35.1285 4.35535C35.0686 4.05416 34.9208 3.7775 34.7036 3.56035C34.4865 3.34321 34.2098 3.19533 33.9086 3.13542C33.6074 3.07551 33.2952 3.10626 33.0115 3.22377C32.7278 3.34129 32.4853 3.5403 32.3147 3.79564C32.1441 4.05097 32.053 4.35117 32.053 4.65826C32.053 4.86219 32.0129 5.06413 31.9349 5.25254C31.8568 5.44095 31.7425 5.61215 31.5983 5.75637C31.4541 5.90058 31.2829 6.01498 31.0945 6.09303C30.9061 6.17109 30.7042 6.21127 30.5002 6.21129C30.2963 6.2113 30.0944 6.17115 29.906 6.09313C29.7175 6.0151 29.5463 5.90073 29.4021 5.75654C29.2579 5.61235 29.1435 5.44116 29.0655 5.25276C28.9874 5.06436 28.9472 4.86243 28.9472 4.6585C28.9472 3.42299 29.438 2.23808 30.3116 1.36444C31.1853 0.490804 32.3702 0 33.6057 0C34.8412 0 36.0261 0.490804 36.8998 1.36444C37.7734 2.23808 38.2642 3.42299 38.2642 4.6585Z" fill="#FDBF00"/>
<path d="M43.0771 15.5892C42.9478 15.8495 42.7486 16.0688 42.5018 16.2224C42.255 16.376 41.9703 16.4579 41.6795 16.4589C41.4436 16.4553 41.2109 16.4024 40.9966 16.3035L33.6055 12.6082L26.2141 16.304C25.8434 16.4853 25.416 16.5119 25.0258 16.378C24.6355 16.2441 24.3145 15.9606 24.1332 15.59C23.952 15.2194 23.9254 14.7919 24.0593 14.4017C24.1932 14.0115 24.4766 13.6904 24.8472 13.5092L32.9218 9.47213C33.135 9.36992 33.3683 9.31686 33.6047 9.31686C33.8411 9.31686 34.0745 9.36992 34.2877 9.47213L42.3622 13.5092C42.7299 13.6934 43.0107 14.0146 43.1442 14.4036C43.2777 14.7926 43.2534 15.2184 43.0764 15.5896L43.0771 15.5892Z" fill="#FDBF00"/>
<path d="M38.264 4.6585C38.2634 5.62008 37.9643 6.55778 37.408 7.34212C36.8518 8.12646 36.0657 8.71876 35.1584 9.03725V10.8694C35.1605 11.0739 35.1217 11.2768 35.0444 11.4661C34.9671 11.6554 34.8528 11.8274 34.7082 11.972C34.5635 12.1166 34.3915 12.2308 34.2022 12.3081C34.0128 12.3853 33.81 12.424 33.6055 12.4219V6.21093C34.0173 6.21093 34.4123 6.04734 34.7035 5.75613C34.9947 5.46493 35.1583 5.06997 35.1583 4.65814C35.1583 4.24632 34.9947 3.85136 34.7035 3.56015C34.4123 3.26895 34.0173 3.10535 33.6055 3.10535V4.86658e-06C34.2175 -0.000880366 34.8236 0.119011 35.3892 0.352809C35.9548 0.586607 36.4687 0.929715 36.9015 1.36247C37.3343 1.79523 37.6774 2.30913 37.9112 2.87472C38.145 3.44032 38.2648 4.04649 38.264 4.6585Z" fill="#FF9F00"/>
<path d="M43.0771 15.5891C42.9478 15.8495 42.7486 16.0688 42.5018 16.2224C42.255 16.376 41.9703 16.4579 41.6795 16.4589C41.4436 16.4553 41.211 16.4023 40.9966 16.3035L33.6055 12.6082V9.31627C33.8415 9.31987 34.0741 9.37279 34.2884 9.47163L42.363 13.5087C42.7306 13.6929 43.0114 14.0141 43.1449 14.4031C43.2784 14.7921 43.2541 15.2179 43.0771 15.5891Z" fill="#FF9F00"/>
<path d="M57 13.9745V26.4999C57.0021 26.7044 56.9634 26.9072 56.8861 27.0966C56.8089 27.2859 56.6946 27.4579 56.55 27.6025C56.4054 27.7471 56.2334 27.8614 56.044 27.9387C55.8547 28.016 55.6518 28.0547 55.4473 28.0526H50.7888V51.4471C50.791 51.6516 50.7523 51.8544 50.675 52.0438C50.5977 52.2331 50.4834 52.4051 50.3388 52.5497C50.1942 52.6943 50.0222 52.8086 49.8329 52.8859C49.6435 52.9632 49.4407 53.0019 49.2362 52.9998H35.1581L16.4219 34.3658V28.0504H11.7634C11.5591 28.0525 11.3564 28.0138 11.1673 27.9367C10.9781 27.8595 10.8062 27.7454 10.6617 27.601C10.5171 27.4567 10.4028 27.2849 10.3254 27.0958C10.248 26.9068 10.2091 26.7042 10.2109 26.4999V13.9745C10.2088 13.77 10.2475 13.5672 10.3248 13.3779C10.4021 13.1885 10.5164 13.0165 10.661 12.8719C10.8056 12.7273 10.9776 12.613 11.1669 12.5357C11.3563 12.4585 11.5591 12.4197 11.7636 12.4219H24.289C24.6956 12.4213 25.0862 12.5805 25.3766 12.8651C25.667 13.1497 25.834 13.537 25.8416 13.9436C25.8359 14.9667 26.0326 15.981 26.4202 16.9279C26.8078 17.8748 27.3787 18.7358 28.1002 19.4613C28.8217 20.1868 29.6795 20.7626 30.6243 21.1555C31.5691 21.5483 32.5822 21.7506 33.6054 21.7506C34.6285 21.7506 35.6417 21.5483 36.5864 21.1555C37.5312 20.7626 38.389 20.1868 39.1105 19.4613C39.832 18.7358 40.4029 17.8748 40.7905 16.9279C41.1782 15.981 41.3748 14.9667 41.3691 13.9436C41.3767 13.537 41.5437 13.1496 41.8342 12.865C42.1247 12.5804 42.5153 12.4212 42.922 12.4219H55.4473C55.6518 12.4197 55.8547 12.4585 56.044 12.5357C56.2334 12.613 56.4054 12.7273 56.55 12.8719C56.6946 13.0165 56.8089 13.1885 56.8861 13.3779C56.9634 13.5672 57.0021 13.77 57 13.9745Z" fill="#A8D32A"/>
<path d="M57 13.9745V26.4999C57.0021 26.7044 56.9634 26.9072 56.8861 27.0966C56.8089 27.2859 56.6946 27.4579 56.55 27.6025C56.4054 27.7471 56.2334 27.8614 56.044 27.9387C55.8547 28.016 55.6518 28.0547 55.4473 28.0526H50.7888V51.4471C50.791 51.6516 50.7522 51.8544 50.675 52.0438C50.5977 52.2331 50.4834 52.4051 50.3388 52.5497C50.1942 52.6943 50.0222 52.8086 49.8329 52.8859C49.6435 52.9632 49.4407 53.0019 49.2362 52.9998H35.1581L33.6055 51.4473V21.7389C34.6273 21.7376 35.6388 21.5349 36.5822 21.1423C37.5256 20.7498 38.3823 20.1751 39.1034 19.4511C39.8245 18.7271 40.3957 17.8681 40.7845 16.9231C41.1733 15.9782 41.3719 14.9658 41.3691 13.944C41.3766 13.5373 41.5436 13.1497 41.8342 12.865C42.1248 12.5802 42.5156 12.4211 42.9225 12.4219H55.4478C55.6523 12.4198 55.8551 12.4586 56.0443 12.5359C56.2336 12.6132 56.4056 12.7275 56.5501 12.8721C56.6947 13.0167 56.8089 13.1887 56.8862 13.378C56.9634 13.5673 57.0021 13.7701 57 13.9745Z" fill="#93BF00"/>
<path d="M38.2637 49.8944C38.2614 50.7174 37.9335 51.5061 37.3516 52.088C36.7697 52.67 35.9811 52.9981 35.1581 53.0005H7.10559C6.2867 52.9933 5.5038 52.6629 4.92728 52.0813C4.35077 51.4997 4.02731 50.7139 4.02731 49.895C4.02731 49.0761 4.35077 48.2903 4.92728 47.7087C5.5038 47.1271 6.2867 46.7968 7.10559 46.7896L21.1836 43.6835L35.1591 46.7891C35.9818 46.7917 36.77 47.1198 37.3517 47.7016C37.9334 48.2834 38.2613 49.0717 38.2637 49.8944Z" fill="#FFCEBF"/>
<path d="M38.2637 49.8944C38.2614 50.7172 37.9336 51.5057 37.352 52.0877C36.7703 52.6697 35.9819 52.9978 35.1591 53.0005H21.1836V43.6835L35.1591 46.7891C35.9818 46.7917 36.77 47.1198 37.3517 47.7016C37.9334 48.2834 38.2612 49.0717 38.2637 49.8944Z" fill="#FFBFAB"/>
<path d="M38.2637 43.6835C38.2614 44.5065 37.9335 45.2951 37.3516 45.8771C36.7697 46.4591 35.9811 46.7871 35.1581 46.7896H7.10559C6.2867 46.7823 5.5038 46.452 4.92728 45.8704C4.35077 45.2888 4.02731 44.503 4.02731 43.6841C4.02731 42.8652 4.35077 42.0794 4.92728 41.4978C5.5038 40.9162 6.2867 40.5858 7.10559 40.5786L21.1836 37.4726L35.1591 40.5779C35.9818 40.5806 36.7701 40.9087 37.3518 41.4905C37.9335 42.0724 38.2613 42.8607 38.2637 43.6835Z" fill="#FFA78F"/>
<path d="M38.2637 43.6835C38.2614 44.5063 37.9336 45.2948 37.352 45.8768C36.7703 46.4587 35.9819 46.7869 35.1591 46.7896H21.1836V37.4726L35.1591 40.5779C35.9818 40.5806 36.7701 40.9087 37.3518 41.4905C37.9335 42.0724 38.2613 42.8607 38.2637 43.6835Z" fill="#F89580"/>
<path d="M38.2637 37.4726C38.2613 38.2955 37.9334 39.084 37.3515 39.6659C36.7696 40.2478 35.9811 40.5757 35.1581 40.5781H7.10559C6.2867 40.5709 5.5038 40.2406 4.92728 39.659C4.35077 39.0774 4.02731 38.2916 4.02731 37.4727C4.02731 36.6538 4.35077 35.868 4.92728 35.2864C5.5038 34.7048 6.2867 34.3744 7.10559 34.3672H35.1581C35.981 34.3696 36.7695 34.6976 37.3514 35.2794C37.9333 35.8612 38.2613 36.6497 38.2637 37.4726Z" fill="#FFCEBF"/>
<path d="M38.2637 37.4726C38.2613 38.2953 37.9335 39.0837 37.3518 39.6655C36.7701 40.2474 35.9818 40.5755 35.1591 40.5781H21.1836V34.3672H35.1591C35.9818 34.3699 36.77 34.6979 37.3517 35.2797C37.9334 35.8615 38.2612 36.6499 38.2637 37.4726Z" fill="#FFBFAB"/>
</g>
<defs>
<filter id="filter0_d" x="0" y="0" width="61" height="61" filterUnits="userSpaceOnUse" color-interpolation-filters="sRGB">
<feFlood flood-opacity="0" result="BackgroundImageFix"/>
<feColorMatrix in="SourceAlpha" type="matrix" values="0 0 0 0 0 0 0 0 0 0 0 0 0 0 0 0 0 0 127 0"/>
<feOffset dy="4"/>
<feGaussianBlur stdDeviation="2"/>
<feColorMatrix type="matrix" values="0 0 0 0 0 0 0 0 0 0 0 0 0 0 0 0 0 0 0.25 0"/>
<feBlend mode="normal" in2="BackgroundImageFix" result="effect1_dropShadow"/>
<feBlend mode="normal" in="SourceGraphic" in2="effect1_dropShadow" result="shape"/>
</filter>
<clipPath id="clip0">
<rect width="53" height="53" fill="white" transform="translate(4)"/>
</clipPath>
</defs>
</svg>
