<svg width="72" height="72" viewBox="0 0 72 72" fill="none" xmlns="http://www.w3.org/2000/svg">
<g clip-path="url(#clip0)" filter="url(#filter0_d)">
<path d="M67.7735 4.617C67.6913 4.52627 67.591 4.4538 67.479 4.40428C67.367 4.35476 67.2459 4.32928 67.1235 4.3295H37.9295C37.8074 4.32954 37.6866 4.35514 37.5749 4.40467C37.4633 4.4542 37.3632 4.52655 37.2813 4.61707C37.1993 4.70759 37.1371 4.81428 37.0988 4.93026C37.0606 5.04624 37.047 5.16895 37.059 5.2905L40.3785 38.8435C40.3997 39.0598 40.5007 39.2605 40.6618 39.4065C40.8229 39.5524 41.0326 39.6332 41.25 39.633H41.875V48.624C41.8737 49.6368 41.8048 50.6484 41.669 51.652C41.66 51.7191 41.6589 51.7871 41.6655 51.8545L41.7095 52.301C41.7307 52.5171 41.8316 52.7176 41.9925 52.8635C42.1534 53.0093 42.3628 53.09 42.58 53.09H62.4745C62.6916 53.0899 62.901 53.0091 63.0618 52.8633C63.2227 52.7175 63.3236 52.5171 63.345 52.301L67.995 5.2905C68.0072 5.16899 67.9938 5.04627 67.9556 4.93027C67.9175 4.81426 67.8554 4.70754 67.7735 4.617Z" fill="#4DB6AC"/>
<path d="M67.7735 4.617C67.6913 4.52627 67.5909 4.4538 67.479 4.40428C67.367 4.35476 67.2459 4.32928 67.1235 4.3295H64.0785C64.2006 4.32954 64.3214 4.35514 64.433 4.40467C64.5447 4.4542 64.6447 4.52655 64.7267 4.61707C64.8087 4.70759 64.8708 4.81428 64.9091 4.93026C64.9474 5.04624 64.961 5.16895 64.949 5.2905L60.3 52.3C60.2786 52.5161 60.1777 52.7165 60.0168 52.8623C59.856 53.0081 59.6466 53.0889 59.4295 53.089H62.4745C62.6916 53.0889 62.901 53.0081 63.0618 52.8623C63.2227 52.7165 63.3236 52.5161 63.345 52.3L67.995 5.2895C68.007 5.16815 67.9936 5.04562 67.9554 4.9298C67.9173 4.81398 67.8553 4.70742 67.7735 4.617Z" fill="#26A69A"/>
<path d="M63.265 52.215V61.105C63.2641 61.8672 62.9609 62.5979 62.4219 63.1369C61.8829 63.6759 61.1522 63.9791 60.39 63.98H44.58C43.8178 63.9791 43.087 63.6759 42.5481 63.1369C42.0091 62.5979 41.7059 61.8672 41.705 61.105V52.215C41.7047 52.1 41.7272 51.9861 41.7711 51.8798C41.8149 51.7736 41.8794 51.677 41.9607 51.5957C42.042 51.5144 42.1385 51.4499 42.2448 51.4061C42.3511 51.3622 42.465 51.3397 42.58 51.34H62.39C62.622 51.3403 62.8444 51.4325 63.0084 51.5966C63.1724 51.7606 63.2647 51.983 63.265 52.215Z" fill="#495766"/>
<path d="M62.39 51.34H59.78C60.012 51.3403 60.2344 51.4325 60.3984 51.5966C60.5625 51.7606 60.6547 51.983 60.655 52.215V61.105C60.6541 61.8672 60.3509 62.5979 59.8119 63.1369C59.2729 63.6759 58.5422 63.9791 57.78 63.98H60.39C61.1522 63.9791 61.8829 63.6759 62.4219 63.1369C62.9609 62.5979 63.2641 61.8672 63.265 61.105V52.215C63.2647 51.983 63.1725 51.7606 63.0084 51.5966C62.8444 51.4325 62.622 51.3403 62.39 51.34Z" fill="#303C47"/>
<path d="M67.125 -0.0185013H37.9295C37.4463 -0.0185013 37.0545 0.37325 37.0545 0.856499V5.2045C37.0545 5.68775 37.4463 6.0795 37.9295 6.0795H67.125C67.6083 6.0795 68 5.68775 68 5.2045V0.856499C68 0.37325 67.6083 -0.0185013 67.125 -0.0185013Z" fill="#BA68C8"/>
<path d="M67.125 -0.0185013H65.6665L65.0415 6.0815H67.125C67.357 6.0815 67.5796 5.98931 67.7437 5.82522C67.9078 5.66112 68 5.43856 68 5.2065V0.856499C68 0.624434 67.9078 0.401875 67.7437 0.23778C67.5796 0.073686 67.357 -0.0185013 67.125 -0.0185013Z" fill="#AB47BC"/>
<path d="M41.705 54.775H63.265V56.525H41.705V54.775Z" fill="#303C47"/>
<path d="M52.5275 15.46C48.414 15.46 45.1925 21.2805 45.1925 28.71C45.1925 36.1395 48.414 41.96 52.5275 41.96C56.641 41.96 59.8625 36.1395 59.8625 28.71C59.8625 21.2805 56.6405 15.46 52.5275 15.46Z" fill="#FFECB3"/>
<path d="M52.5275 15.46C52.2647 15.4603 52.0024 15.4846 51.744 15.5325C55.4755 16.2185 58.294 21.7595 58.294 28.71C58.294 35.6605 55.474 41.202 51.744 41.8875C52.0024 41.9354 52.2647 41.9597 52.5275 41.96C56.641 41.96 59.8625 36.1395 59.8625 28.71C59.8625 21.2805 56.6405 15.46 52.5275 15.46Z" fill="#FFE082"/>
<path d="M38.595 30.405V32.125C38.5947 32.357 38.5025 32.5794 38.3384 32.7434C38.1744 32.9075 37.952 32.9997 37.72 33H9.905C9.67302 32.9997 9.45061 32.9075 9.28657 32.7434C9.12254 32.5794 9.03026 32.357 9.03 32.125V30.405C9.03273 29.3859 9.38996 28.3994 10.0404 27.6149C10.6909 26.8303 11.594 26.2965 12.595 26.105C12.6 26.08 12.6 26.055 12.605 26.03C12.8164 24.5802 13.5425 23.2549 14.6506 22.2964C15.7588 21.3379 17.1749 20.8103 18.64 20.81C20.0027 20.8061 21.3465 20.4905 22.5685 19.8873C23.7904 19.2842 24.8582 18.4094 25.69 17.33L28.29 13.935C28.373 13.8275 28.48 13.7408 28.6024 13.6817C28.7247 13.6227 28.8592 13.593 28.995 13.5949C29.1308 13.5969 29.2644 13.6304 29.385 13.6929C29.5056 13.7554 29.6101 13.8451 29.69 13.955L31.855 16.94C33.7833 19.5945 34.897 22.7531 35.06 26.03C35.0642 26.0565 35.0658 26.0832 35.065 26.11C36.0584 26.3091 36.9524 26.8454 37.5957 27.6282C38.239 28.4109 38.592 29.3919 38.595 30.405Z" fill="#FFECB3"/>
<path d="M37.715 27.78C37.07 26.9133 36.1252 26.3179 35.065 26.11C35.0658 26.0832 35.0642 26.0565 35.06 26.03C34.897 22.7531 33.7833 19.5945 31.855 16.94L29.69 13.955C29.6101 13.8451 29.5056 13.7554 29.385 13.6929C29.2644 13.6304 29.1309 13.5969 28.995 13.5949C28.8592 13.593 28.7247 13.6227 28.6024 13.6817C28.48 13.7408 28.3731 13.8275 28.29 13.935L27.669 14.746L29.26 16.94C31.1883 19.5945 32.302 22.7531 32.465 26.03C32.4692 26.0565 32.4708 26.0832 32.47 26.11C33.4634 26.3091 34.3574 26.8454 35.0007 27.6282C35.644 28.4109 35.997 29.3919 36 30.405V32.125C35.9997 32.357 35.9075 32.5794 35.7434 32.7434C35.5794 32.9075 35.357 32.9997 35.125 33H37.72C37.952 32.9997 38.1744 32.9075 38.3384 32.7434C38.5025 32.5794 38.5947 32.357 38.595 32.125V30.405C38.5976 29.4572 38.2884 28.5348 37.715 27.78Z" fill="#FFE082"/>
<path d="M21.71 26.905C21.7097 27.137 21.6175 27.3594 21.4534 27.5234C21.2894 27.6875 21.067 27.7797 20.835 27.78H9.91C10.5646 26.9062 11.5224 26.3087 12.595 26.105C12.6 26.08 12.6 26.055 12.605 26.03H20.835C21.067 26.0303 21.2894 26.1225 21.4534 26.2866C21.6175 26.4506 21.7097 26.673 21.71 26.905Z" fill="#FFE082"/>
<path d="M37.715 27.78H26.625C26.3929 27.78 26.1704 27.6878 26.0063 27.5237C25.8422 27.3596 25.75 27.1371 25.75 26.905C25.75 26.6729 25.8422 26.4504 26.0063 26.2863C26.1704 26.1222 26.3929 26.03 26.625 26.03H35.06C35.0642 26.0565 35.0658 26.0832 35.065 26.11C36.1252 26.3179 37.07 26.9133 37.715 27.78Z" fill="#FFE082"/>
<path d="M40.645 32.125V38.76C40.6447 38.992 40.5525 39.2144 40.3884 39.3784C40.2244 39.5425 40.002 39.6347 39.77 39.635H7.85501C7.62303 39.6347 7.40062 39.5425 7.23658 39.3784C7.07255 39.2144 6.98028 38.992 6.98001 38.76V32.125C6.98028 31.893 7.07255 31.6706 7.23658 31.5066C7.40062 31.3425 7.62303 31.2503 7.85501 31.25H39.77C40.002 31.2503 40.2244 31.3425 40.3884 31.5066C40.5525 31.6706 40.6447 31.893 40.645 32.125Z" fill="#BA68C8"/>
<path d="M39.77 31.25H37.29C37.522 31.2503 37.7444 31.3425 37.9084 31.5066C38.0725 31.6706 38.1647 31.893 38.165 32.125V38.76C38.1647 38.992 38.0725 39.2144 37.9084 39.3784C37.7444 39.5425 37.522 39.6347 37.29 39.635H39.77C40.002 39.6347 40.2244 39.5425 40.3884 39.3784C40.5525 39.2144 40.6447 38.992 40.645 38.76V32.125C40.6447 31.893 40.5525 31.6706 40.3884 31.5066C40.2244 31.3425 40.002 31.2503 39.77 31.25Z" fill="#AB47BC"/>
<path d="M40.645 34.565V36.315H28.25C28.0179 36.315 27.7954 36.2228 27.6313 36.0587C27.4672 35.8946 27.375 35.6721 27.375 35.44C27.375 35.2079 27.4672 34.9854 27.6313 34.8213C27.7954 34.6572 28.0179 34.565 28.25 34.565H40.645Z" fill="#AB47BC"/>
<path d="M20.25 35.44C20.2503 35.555 20.2278 35.6689 20.1839 35.7752C20.1401 35.8814 20.0756 35.978 19.9943 36.0593C19.913 36.1406 19.8164 36.205 19.7102 36.2489C19.6039 36.2928 19.49 36.3153 19.375 36.315H6.98001V34.565H19.375C19.607 34.5653 19.8294 34.6575 19.9934 34.8216C20.1575 34.9856 20.2497 35.208 20.25 35.44Z" fill="#AB47BC"/>
<path d="M42.75 37.883H4.875C4.64294 37.883 4.42038 37.9752 4.25628 38.1393C4.09219 38.3034 4 38.5259 4 38.758V48.624C4.00879 54.0798 5.83317 59.3776 9.1855 63.682C9.26729 63.7868 9.3719 63.8716 9.49138 63.9299C9.61085 63.9882 9.74205 64.0185 9.875 64.0185H37.75C37.8829 64.0185 38.0141 63.9882 38.1336 63.9299C38.2531 63.8716 38.3577 63.7868 38.4395 63.682C41.7918 59.3776 43.6162 54.0798 43.625 48.624V38.758C43.625 38.5259 43.5328 38.3034 43.3687 38.1393C43.2046 37.9752 42.9821 37.883 42.75 37.883Z" fill="#FEC13B"/>
<path d="M42.75 37.883H40.27C40.5021 37.883 40.7246 37.9752 40.8887 38.1393C41.0528 38.3034 41.145 38.5259 41.145 38.758V48.624C41.1362 54.0798 39.3118 59.3776 35.9595 63.682C35.8777 63.7868 35.7731 63.8716 35.6536 63.9299C35.5341 63.9882 35.4029 64.0185 35.27 64.0185H37.75C37.8829 64.0185 38.0141 63.9882 38.1336 63.9299C38.2531 63.8716 38.3577 63.7868 38.4395 63.682C41.7918 59.3776 43.6162 54.0798 43.625 48.624V38.758C43.625 38.5259 43.5328 38.3034 43.3687 38.1393C43.2046 37.9752 42.9821 37.883 42.75 37.883Z" fill="#FFA000"/>
<path d="M31.4865 54.3095C30.8792 53.2571 29.8996 52.4704 28.741 52.1045C28.5946 52.0578 28.4385 52.0506 28.2885 52.0836C28.1384 52.1166 27.9997 52.1887 27.8865 52.2925C26.7733 53.309 25.3204 53.8725 23.813 53.8725C22.3056 53.8725 20.8526 53.309 19.7395 52.2925C19.6263 52.1886 19.4876 52.1164 19.3376 52.0834C19.1875 52.0504 19.0313 52.0577 18.885 52.1045C17.7261 52.4702 16.7463 53.257 16.139 54.3095C16.062 54.4426 16.0214 54.5937 16.0214 54.7475C16.0214 54.9013 16.062 55.0524 16.139 55.1855C16.513 55.8343 17.0318 56.388 17.655 56.8033C18.2782 57.2186 18.9889 57.4844 19.7317 57.5798C20.4745 57.6753 21.2293 57.5978 21.9372 57.3535C22.6452 57.1092 23.2871 56.7047 23.813 56.1715C24.3389 56.7047 24.9808 57.1092 25.6887 57.3535C26.3967 57.5978 27.1515 57.6753 27.8943 57.5798C28.6371 57.4844 29.3478 57.2186 29.971 56.8033C30.5942 56.388 31.113 55.8343 31.487 55.1855C31.5639 55.0523 31.6044 54.9012 31.6043 54.7474C31.6042 54.5936 31.5636 54.4426 31.4865 54.3095Z" fill="#4DB6AC"/>
<path d="M30.729 46.839C29.014 46.834 27.3462 47.4005 25.989 48.449C25.8655 48.5436 25.7695 48.6695 25.711 48.8137C25.6524 48.9579 25.6334 49.1151 25.656 49.269C25.689 49.4953 25.7057 49.7238 25.706 49.9525C25.7036 50.6809 25.5312 51.3988 25.2024 52.0488C24.8735 52.6988 24.3974 53.263 23.812 53.6965C23.2263 53.2627 22.7501 52.6981 22.4214 52.0476C22.0926 51.3971 21.9204 50.6788 21.9185 49.95C21.9188 49.7213 21.9355 49.4928 21.9685 49.2665C21.9911 49.1125 21.9721 48.9554 21.9135 48.8112C21.855 48.667 21.759 48.5411 21.6355 48.4465C20.2783 47.398 18.6105 46.8315 16.8955 46.8365C16.6634 46.8365 16.4409 46.9287 16.2768 47.0928C16.1127 47.2569 16.0205 47.4794 16.0205 47.7115V47.8285C16.0205 49.8949 16.8414 51.8767 18.3026 53.3379C19.7638 54.7991 21.7456 55.62 23.812 55.62C25.8784 55.62 27.8602 54.7991 29.3214 53.3379C30.7826 51.8767 31.6035 49.8949 31.6035 47.8285V47.7115C31.6028 47.48 31.5104 47.2581 31.3465 47.0946C31.1826 46.931 30.9606 46.8391 30.729 46.839Z" fill="#BA68C8"/>
<path d="M24.25 44.4C24.1168 44.3227 23.9655 44.282 23.8115 44.282C23.6575 44.282 23.5062 44.3227 23.373 44.4C22.3982 44.9628 21.5888 45.7722 21.026 46.747C20.4632 47.7217 20.1669 48.8274 20.1669 49.953C20.1669 51.0786 20.4632 52.1843 21.026 53.159C21.5888 54.1338 22.3982 54.9432 23.373 55.506C23.5061 55.5831 23.6572 55.6237 23.811 55.6237C23.9648 55.6237 24.1159 55.5831 24.249 55.506C25.2238 54.9432 26.0332 54.1338 26.596 53.159C27.1588 52.1843 27.4551 51.0786 27.4551 49.953C27.4551 48.8274 27.1588 47.7217 26.596 46.747C26.0332 45.7722 25.2238 44.9628 24.249 44.4H24.25Z" fill="#BA68C8"/>
<path d="M25.989 48.45C25.8655 48.5446 25.7695 48.6705 25.711 48.8147C25.6524 48.9589 25.6334 49.116 25.656 49.27C25.689 49.4963 25.7057 49.7248 25.706 49.9535C25.7036 50.6819 25.5312 51.3998 25.2023 52.0498C24.8735 52.6998 24.3974 53.264 23.812 53.6975C23.2262 53.2636 22.7499 52.6988 22.4211 52.0481C22.0924 51.3975 21.9203 50.679 21.9185 49.95C21.9188 49.7213 21.9355 49.4928 21.9685 49.2665C21.9911 49.1125 21.9721 48.9554 21.9135 48.8112C21.855 48.667 21.759 48.5411 21.6355 48.4465C20.5158 47.5836 19.1802 47.0456 17.775 46.8915C17.9784 48.2093 18.4739 49.4649 19.2253 50.5665C19.9767 51.6681 20.9648 52.5877 22.1175 53.258C22.6317 53.556 23.2154 53.7129 23.8097 53.7129C24.404 53.7129 24.9878 53.556 25.502 53.258C26.6553 52.5883 27.6443 51.6692 28.3966 50.568C29.1489 49.4668 29.6454 48.2114 29.85 46.8935C28.4445 47.048 27.1087 47.5865 25.989 48.45Z" fill="#AB47BC"/>
<path d="M24.25 44.4C24.1168 44.3227 23.9655 44.282 23.8115 44.282C23.6575 44.282 23.5062 44.3227 23.373 44.4C22.3982 44.9628 21.5888 45.7722 21.026 46.747C20.4632 47.7217 20.1669 48.8274 20.1669 49.953C20.1669 51.0786 20.4632 52.1843 21.026 53.159C21.5888 54.1338 22.3982 54.9432 23.373 55.506C23.5061 55.5831 23.6572 55.6237 23.811 55.6237C23.9648 55.6237 24.1159 55.5831 24.249 55.506C25.2238 54.9432 26.0332 54.1338 26.596 53.159C27.1588 52.1843 27.4551 51.0786 27.4551 49.953C27.4551 48.8274 27.1588 47.7217 26.596 46.747C26.0332 45.7722 25.2238 44.9628 24.249 44.4H24.25Z" fill="#BA68C8"/>
</g>
<defs>
<filter id="filter0_d" x="0" y="0" width="72" height="72" filterUnits="userSpaceOnUse" color-interpolation-filters="sRGB">
<feFlood flood-opacity="0" result="BackgroundImageFix"/>
<feColorMatrix in="SourceAlpha" type="matrix" values="0 0 0 0 0 0 0 0 0 0 0 0 0 0 0 0 0 0 127 0"/>
<feOffset dy="4"/>
<feGaussianBlur stdDeviation="2"/>
<feColorMatrix type="matrix" values="0 0 0 0 0 0 0 0 0 0 0 0 0 0 0 0 0 0 0.25 0"/>
<feBlend mode="normal" in2="BackgroundImageFix" result="effect1_dropShadow"/>
<feBlend mode="normal" in="SourceGraphic" in2="effect1_dropShadow" result="shape"/>
</filter>
<clipPath id="clip0">
<rect width="64" height="64" fill="white" transform="translate(4)"/>
</clipPath>
</defs>
</svg>
