<svg width="52" height="52" viewBox="0 0 52 52" fill="none" xmlns="http://www.w3.org/2000/svg">
<g clip-path="url(#clip0)" filter="url(#filter0_d)">
<path d="M43.3684 44H29.4737L27.1579 13.6551H45.6842L43.3684 44Z" fill="#F05D46"/>
<path d="M24.8421 9.86211H48V13.6559H24.8421V9.86211Z" fill="#DEDEDE"/>
<path d="M34.8772 0H37.9649V9.86211H34.8772V0Z" fill="#F05D46"/>
<path d="M30.4675 19.7746L32.0079 19.6742L32.302 24.0367L30.7616 24.1371L30.4675 19.7746Z" fill="#FF8B78"/>
<path d="M30.2475 16.7434L31.7872 16.6353L31.8977 18.1526L30.3579 18.2607L30.2475 16.7434Z" fill="#FF8B78"/>
<path d="M45.5105 15.931L45.6842 13.6551H27.1579L27.3316 15.931H45.5105Z" fill="#D64D37"/>
<path d="M37.9649 40.9656V37.9311H34.8772C35.6347 37.9265 36.364 37.6484 36.9265 37.1497C37.4889 36.6511 37.8452 35.9666 37.9275 35.2266C38.0099 34.4865 37.8125 33.7426 37.3731 33.1362C36.9336 32.5299 36.2826 32.1035 35.5441 31.9381L35.6493 31.8622H37.9651C37.9639 29.146 36.9028 26.5336 35.0004 24.5632C33.0981 22.5928 30.4993 21.4143 27.7392 21.2705L29.4739 44.0002H34.8774C35.6963 44.0002 36.4816 43.6804 37.0607 43.1114C37.6397 42.5423 37.965 41.7705 37.9651 40.9658L37.9649 40.9656Z" fill="#D64D37"/>
<path d="M4 37.9311H34.8772V40.9656C34.8772 41.7703 34.5518 42.5421 33.9728 43.1112C33.3937 43.6802 32.6084 43.9999 31.7895 44H7.08768C6.26879 43.9999 5.48346 43.6802 4.90442 43.1112C4.32538 42.5421 4.00006 41.7703 4 40.9656V37.9311Z" fill="#F09E3E"/>
<path d="M27.1579 37.9311V40.9656C27.1579 41.7703 26.8325 42.5421 26.2535 43.1112C25.6744 43.6802 24.8891 43.9999 24.0702 44H31.7895C32.6084 43.9999 33.3938 43.6802 33.9728 43.1112C34.5518 42.5421 34.8772 41.7703 34.8772 40.9656V37.9311H27.1579Z" fill="#F09032"/>
<path d="M14.807 21.2413H24.0698C25.489 21.2413 26.8943 21.516 28.2055 22.0498C29.5166 22.5835 30.708 23.3658 31.7115 24.3521C32.715 25.3383 33.5111 26.5091 34.0542 27.7977C34.5973 29.0862 34.8768 30.4673 34.8768 31.862H4C4 29.0452 5.13859 26.3438 7.16529 24.3521C9.19199 22.3603 11.9408 21.2413 14.807 21.2413Z" fill="#F09E3E"/>
<path d="M24.0702 21.2413H16.3509C19.2171 21.2413 21.9659 22.3603 23.9926 24.3521C26.0193 26.3438 27.1579 29.0452 27.1579 31.862H34.8772C34.8772 29.0452 33.7386 26.3438 31.7119 24.3521C29.6852 22.3603 26.9364 21.2413 24.0702 21.2413Z" fill="#F09032"/>
<path d="M7.08768 31.8622H31.7895C32.6084 31.8622 33.3938 32.1819 33.9728 32.751C34.5519 33.32 34.8772 34.0919 34.8772 34.8967C34.8772 35.7014 34.5519 36.4733 33.9728 37.0423C33.3938 37.6114 32.6084 37.9311 31.7895 37.9311H7.08768C6.26878 37.9311 5.48341 37.6114 4.90436 37.0423C4.32531 36.4733 4 35.7014 4 34.8967C4 34.0919 4.32531 33.32 4.90436 32.751C5.48341 32.1819 6.26878 31.8622 7.08768 31.8622Z" fill="#8C563B"/>
<path d="M34.4486 33.3795C34.18 32.9194 33.7929 32.5369 33.3261 32.2705C32.8593 32.0041 32.3293 31.8633 31.7895 31.8622H7.08768C6.5479 31.8633 6.01794 32.0041 5.55114 32.2705C5.08434 32.5369 4.69716 32.9194 4.42859 33.3795H34.4486Z" fill="#874E35"/>
<path d="M14.807 31.8622L24.0702 37.9311L32.5614 31.8622H14.807Z" fill="#FFCC33"/>
<path d="M20.9826 26.5517H22.5265V28.069H20.9826V26.5517Z" fill="#C96E23"/>
<path d="M16.3509 26.5517H17.8949V28.069H16.3509V26.5517Z" fill="#C96E23"/>
<path d="M11.7193 26.5517H13.2632V28.069H11.7193V26.5517Z" fill="#C96E23"/>
<path d="M23.2982 23.5172H24.8421V25.0346H23.2982V23.5172Z" fill="#C96E23"/>
<path d="M18.6667 23.5172H20.2107V25.0346H18.6667V23.5172Z" fill="#C96E23"/>
<path d="M14.0351 23.5172H15.5791V25.0346H14.0351V23.5172Z" fill="#C96E23"/>
<path d="M25.614 26.5517H27.1579V28.069H25.614V26.5517Z" fill="#C96E23"/>
<path d="M30.306 33.4736L32.5614 31.8622H14.807L17.2679 33.4736H30.306Z" fill="#FFB60C"/>
</g>
<defs>
<filter id="filter0_d" x="0" y="0" width="52" height="52" filterUnits="userSpaceOnUse" color-interpolation-filters="sRGB">
<feFlood flood-opacity="0" result="BackgroundImageFix"/>
<feColorMatrix in="SourceAlpha" type="matrix" values="0 0 0 0 0 0 0 0 0 0 0 0 0 0 0 0 0 0 127 0"/>
<feOffset dy="4"/>
<feGaussianBlur stdDeviation="2"/>
<feColorMatrix type="matrix" values="0 0 0 0 0 0 0 0 0 0 0 0 0 0 0 0 0 0 0.25 0"/>
<feBlend mode="normal" in2="BackgroundImageFix" result="effect1_dropShadow"/>
<feBlend mode="normal" in="SourceGraphic" in2="effect1_dropShadow" result="shape"/>
</filter>
<clipPath id="clip0">
<rect width="44" height="44" fill="white" transform="translate(4)"/>
</clipPath>
</defs>
</svg>
