<svg width="46" height="43" viewBox="0 0 46 43" fill="none" xmlns="http://www.w3.org/2000/svg">
<path d="M42.1505 18.9527H3.84873C3.65612 18.9527 3.4714 19.0294 3.3352 19.1659C3.19901 19.3024 3.1225 19.4876 3.1225 19.6807V42.2712C3.1225 42.4643 3.19901 42.6494 3.3352 42.786C3.4714 42.9225 3.65612 42.9992 3.84873 42.9992H42.1505C42.2459 42.9993 42.3405 42.9806 42.4287 42.9441C42.5169 42.9075 42.5971 42.8539 42.6646 42.7863C42.7322 42.7187 42.7858 42.6384 42.8223 42.55C42.8589 42.4616 42.8777 42.3669 42.8777 42.2712V19.6809C42.8777 19.5852 42.8589 19.4904 42.8223 19.402C42.7858 19.3136 42.7322 19.2333 42.6646 19.1657C42.5971 19.098 42.5169 19.0444 42.4287 19.0079C42.3405 18.9713 42.2459 18.9526 42.1505 18.9527Z" fill="#F7434C"/>
<path d="M42.1505 18.9527H3.84873C3.65612 18.9527 3.4714 19.0294 3.3352 19.1659C3.19901 19.3024 3.1225 19.4876 3.1225 19.6807V22.5931H42.8777V19.6807C42.8777 19.585 42.8588 19.4903 42.8223 19.4019C42.7857 19.3135 42.7321 19.2332 42.6646 19.1656C42.597 19.098 42.5169 19.0444 42.4286 19.0078C42.3404 18.9713 42.2459 18.9526 42.1505 18.9527Z" fill="#DB2E37"/>
<path d="M26.7105 18.9527H19.2895C19.0969 18.9527 18.9121 19.0294 18.7759 19.1659C18.6397 19.3024 18.5632 19.4876 18.5632 19.6807V42.2712C18.5632 42.4643 18.6397 42.6494 18.7759 42.786C18.9121 42.9225 19.0969 42.9992 19.2895 42.9992H26.7103C26.8057 42.9992 26.9002 42.9804 26.9883 42.9438C27.0764 42.9073 27.1565 42.8536 27.224 42.786C27.2914 42.7184 27.3449 42.6382 27.3815 42.5498C27.418 42.4615 27.4368 42.3668 27.4368 42.2712V19.6809C27.4368 19.5853 27.418 19.4906 27.3815 19.4022C27.345 19.3139 27.2916 19.2336 27.2241 19.166C27.1567 19.0983 27.0766 19.0447 26.9885 19.0081C26.9004 18.9715 26.8059 18.9527 26.7105 18.9527Z" fill="#FFDB57"/>
<path d="M26.7105 18.9527H19.2895C19.0969 18.9527 18.9121 19.0294 18.7759 19.1659C18.6397 19.3024 18.5632 19.4876 18.5632 19.6807V22.578H27.4376V19.6807C27.4376 19.585 27.4188 19.4903 27.3822 19.4019C27.3457 19.3135 27.2921 19.2332 27.2246 19.1656C27.1571 19.098 27.0769 19.0444 26.9887 19.0078C26.9005 18.9713 26.806 18.9526 26.7105 18.9527Z" fill="#F5BA3D"/>
<path d="M40.7363 5.50257C40.0239 3.64172 38.9003 1.82434 37.7304 0.640703C37.5122 0.424125 37.2514 0.255374 36.9647 0.145153C36.678 0.0349322 36.3715 -0.0143524 36.0648 0.000425227C33.8841 0.0512312 30.3307 2.79577 25.5031 8.15509C25.3826 8.2889 25.3158 8.46283 25.3159 8.64315V12.4944C25.3159 12.6875 25.3924 12.8727 25.5286 13.0092C25.6648 13.1457 25.8495 13.2224 26.0421 13.2224H37.2144C39.7037 13.2224 40.7312 12.0084 41.1547 10.9898C41.7196 9.63213 41.5708 7.68335 40.7363 5.50257Z" fill="#FFDB57"/>
<path d="M41.1521 6.77127C41.1318 6.69652 41.0997 6.6255 41.057 6.56091C39.9604 4.89859 37.5905 5.5203 35.7957 6.33503C30.5812 8.7019 28.4276 11.9606 28.3388 12.0981C28.2676 12.208 28.2273 12.3352 28.2222 12.4661C28.217 12.5971 28.2472 12.727 28.3096 12.8422C28.372 12.9574 28.4642 13.0535 28.5766 13.1205C28.689 13.1875 28.8173 13.2229 28.948 13.2228H37.2142C38.7981 13.2228 39.973 12.7354 40.7057 11.7741C41.5765 10.6319 41.7307 8.90104 41.1521 6.77127Z" fill="#EF9325"/>
<path d="M20.4969 8.1553C15.6693 2.79517 12.1157 0.0516452 9.93519 0.000635176C9.62844 -0.0143179 9.32195 0.0348856 9.03521 0.145116C8.74846 0.255347 8.48774 0.424192 8.26962 0.640913C7.09967 1.82434 5.97593 3.64193 5.26374 5.50278C4.42923 7.68356 4.28044 9.63235 4.84506 10.9902C5.26863 12.0088 6.29589 13.2228 8.78539 13.2228H19.9577C20.1503 13.2228 20.335 13.1461 20.4712 13.0096C20.6074 12.8731 20.6839 12.6879 20.6839 12.4948V8.64316C20.6841 8.46291 20.6174 8.28904 20.4969 8.1553Z" fill="#FFDB57"/>
<path d="M17.6614 12.098C17.5722 11.9604 15.419 8.7009 10.2045 6.33485C8.40946 5.52032 6.03985 4.89861 4.94298 6.56072C4.90033 6.6254 4.86824 6.69649 4.84792 6.77129C4.26906 8.90209 4.42334 10.6319 5.29388 11.7739C6.02662 12.7352 7.20125 13.2226 8.7854 13.2226H17.0522C17.1829 13.2226 17.3112 13.1873 17.4235 13.1203C17.5358 13.0533 17.6281 12.9572 17.6904 12.8421C17.7528 12.7269 17.7831 12.597 17.7779 12.4661C17.7728 12.3352 17.7325 12.2081 17.6614 12.0982V12.098Z" fill="#EF9325"/>
<path d="M26.0421 7.1955H19.9577C19.7651 7.1955 19.5804 7.2722 19.4442 7.40872C19.308 7.54525 19.2315 7.73043 19.2315 7.92351V12.494C19.2315 12.6871 19.308 12.8723 19.4442 13.0088C19.5804 13.1453 19.7651 13.222 19.9577 13.222H26.0421C26.1375 13.222 26.2319 13.2032 26.32 13.1666C26.4081 13.13 26.4882 13.0764 26.5556 13.0088C26.6231 12.9412 26.6766 12.8609 26.7131 12.7726C26.7496 12.6843 26.7684 12.5896 26.7684 12.494V7.92351C26.7684 7.8279 26.7496 7.73324 26.7131 7.64491C26.6766 7.55658 26.6231 7.47633 26.5556 7.40872C26.4882 7.34112 26.4081 7.2875 26.32 7.25091C26.2319 7.21432 26.1375 7.1955 26.0421 7.1955Z" fill="#F5BA3D"/>
<path d="M45.2738 11.768H0.72623C0.533622 11.768 0.348902 11.8447 0.212708 11.9813C0.0765133 12.1178 0 12.303 0 12.4961L0 19.6807C0 19.8738 0.0765133 20.059 0.212708 20.1955C0.348902 20.332 0.533622 20.4087 0.72623 20.4087H45.2738C45.4663 20.4087 45.651 20.332 45.7872 20.1956C45.9234 20.0591 45.9999 19.874 46 19.6809V12.4961C46 12.303 45.9235 12.1178 45.7873 11.9813C45.6511 11.8447 45.4664 11.768 45.2738 11.768Z" fill="#F7434C"/>
<path d="M28.579 11.7676H17.421V20.4087H28.579V11.7676Z" fill="#FFDB57"/>
</svg>
