<svg width="57" height="62" viewBox="0 0 57 62" fill="none" xmlns="http://www.w3.org/2000/svg">
<path d="M28.4994 62C24.6269 62 20.8875 60.7387 17.3844 58.2513C14.0882 55.9104 11.1418 52.5834 8.62665 48.3624C3.55477 39.8475 0.761429 28.5637 0.761429 16.5891C0.761496 16.1074 0.948034 15.6455 1.28002 15.3048C1.61201 14.9642 2.06226 14.7729 2.53176 14.7728H8.43474C10.7816 14.77 13.0315 13.8124 14.691 12.1099C16.3505 10.4074 17.2841 8.09909 17.2869 5.69134V5.44913C17.287 4.96762 17.4734 4.50584 17.8052 4.16527C18.1369 3.82469 18.5869 3.63319 19.0562 3.63284H37.9425C38.412 3.63291 38.8623 3.82429 39.1942 4.1649C39.5262 4.5055 39.7128 4.96744 39.7128 5.44913V5.69134C39.7155 8.09918 40.649 10.4076 42.3086 12.1102C43.9681 13.8128 46.2181 14.7706 48.565 14.7733H54.4665C54.936 14.7734 55.3862 14.9648 55.7182 15.3054C56.0502 15.646 56.2367 16.1079 56.2368 16.5896C56.2368 28.5635 53.4445 39.8467 48.3716 48.363C45.8585 52.5841 42.9111 55.9112 39.6138 58.2518C36.1107 60.7392 32.3711 62.0005 28.4989 62.0005L28.4994 62Z" fill="#6E6E6E"/>
<path d="M48.3718 48.3627C53.4437 39.8477 56.2371 28.564 56.2371 16.5893C56.237 16.1076 56.0505 15.6457 55.7185 15.3051C55.3865 14.9645 54.9362 14.7731 54.4667 14.773H48.565C46.2181 14.7703 43.9681 13.8126 42.3086 12.11C40.649 10.4074 39.7155 8.09892 39.7128 5.69107V5.44887C39.7128 4.96718 39.5262 4.50524 39.1943 4.16463C38.8623 3.82403 38.412 3.63265 37.9425 3.63258H28.4999V62C32.3723 62 36.1118 60.7387 39.6149 58.2513C42.9113 55.9107 45.8575 52.5834 48.3726 48.3624L48.3718 48.3627Z" fill="#555555"/>
<path d="M28.4999 10.8985C23.0995 10.8985 17.2869 9.19318 17.2869 5.44939C17.2869 1.7056 23.0988 0 28.4999 0C33.901 0 39.7128 1.70534 39.7128 5.44913C39.7128 9.19292 33.9005 10.8985 28.4999 10.8985Z" fill="#8B8B8B"/>
<path d="M47.3849 12.957C46.9154 12.9571 46.4651 13.1485 46.1332 13.4891C45.8012 13.8297 45.6146 14.2916 45.6146 14.7733V16.5896C45.6146 21.9757 43.8026 27.0178 40.5089 30.8074L35.1883 34.9697C33.1081 36.0225 30.8197 36.5701 28.5003 36.5701C26.1808 36.5701 23.8924 36.0225 21.8123 34.9697L16.4916 30.8077C13.1977 27.017 11.3857 21.976 11.3857 16.5899V14.7736C11.3857 14.2918 11.1992 13.8298 10.8672 13.4892C10.5351 13.1485 10.0848 12.9572 9.61526 12.9572C9.14571 12.9572 8.69539 13.1485 8.36336 13.4892C8.03133 13.8298 7.8448 14.2918 7.8448 14.7736V16.5899C7.8448 22.9399 10.0233 28.901 13.9788 33.374C14.05 33.4542 14.1282 33.5276 14.2123 33.5933L19.8023 37.9663C19.8913 38.0363 19.9867 38.0973 20.0871 38.1486C22.6959 39.4998 25.5774 40.2037 28.4998 40.2037C31.4221 40.2037 34.3036 39.4998 36.9124 38.1486C37.0128 38.0972 37.1081 38.0362 37.1972 37.9663L42.7872 33.5933C42.8714 33.5277 42.9496 33.4543 43.0207 33.374C46.9762 28.901 49.1547 22.9399 49.1547 16.5899V14.7736C49.1547 14.2919 48.9683 13.83 48.6364 13.4894C48.3045 13.1487 47.8544 12.9572 47.3849 12.957Z" fill="#FAE628"/>
<path d="M17.8774 40.0579C16.8269 40.0579 15.8 39.7383 14.9266 39.1395C14.0532 38.5408 13.3724 37.6897 12.9704 36.694C12.5684 35.6983 12.4632 34.6027 12.6682 33.5457C12.8731 32.4886 13.379 31.5177 14.1218 30.7556C14.8645 29.9936 15.8109 29.4746 16.8412 29.2643C17.8715 29.0541 18.9394 29.162 19.9099 29.5744C20.8804 29.9868 21.7099 30.6853 22.2935 31.5814C22.8771 32.4775 23.1886 33.531 23.1886 34.6087C23.187 36.0534 22.6269 37.4385 21.6312 38.46C20.6355 39.4816 19.2855 40.0562 17.8774 40.0579Z" fill="#FFFA78"/>
<path d="M17.8781 36.425C17.528 36.425 17.1857 36.3185 16.8946 36.1189C16.6034 35.9194 16.3765 35.6357 16.2425 35.3038C16.1086 34.9719 16.0735 34.6067 16.1418 34.2544C16.2101 33.9021 16.3787 33.5785 16.6263 33.3244C16.8739 33.0704 17.1893 32.8974 17.5327 32.8274C17.8762 32.7573 18.2321 32.7932 18.5556 32.9307C18.8791 33.0682 19.1556 33.301 19.3501 33.5997C19.5446 33.8984 19.6485 34.2495 19.6485 34.6087C19.6479 35.0903 19.4612 35.552 19.1293 35.8925C18.7975 36.233 18.3475 36.4245 17.8781 36.425Z" fill="#FF87CA"/>
<path d="M39.7128 5.44913C39.7128 1.70534 33.9002 0 28.4999 0V10.8985C33.9002 10.8985 39.7128 9.19344 39.7128 5.44913Z" fill="#6E6E6E"/>
<path d="M47.3846 12.957C46.9151 12.9571 46.4649 13.1485 46.1329 13.4891C45.8009 13.8297 45.6144 14.2916 45.6143 14.7733V16.5896C45.6143 21.9757 43.8023 27.0178 40.5087 30.8074L35.188 34.9697C33.1067 36.0194 30.819 36.5668 28.4999 36.5701V40.2029C31.422 40.2002 34.3029 39.4964 36.9126 38.1478C37.013 38.0965 37.1084 38.0354 37.1975 37.9655L42.7874 33.5925C42.8716 33.5269 42.9498 33.4535 43.021 33.3732C46.9764 28.9002 49.155 22.9391 49.155 16.5891V14.7736C49.1549 14.2919 48.9684 13.8299 48.6364 13.4893C48.3044 13.1487 47.8541 12.9574 47.3846 12.9573V12.957Z" fill="#FFCD00"/>
<path d="M39.1229 40.0579C38.0724 40.0579 37.0456 39.7383 36.1721 39.1395C35.2987 38.5408 34.6179 37.6897 34.2159 36.694C33.8139 35.6983 33.7088 34.6027 33.9137 33.5457C34.1186 32.4886 34.6245 31.5177 35.3673 30.7556C36.1101 29.9936 37.0564 29.4746 38.0867 29.2643C39.117 29.0541 40.1849 29.162 41.1554 29.5744C42.1259 29.9868 42.9554 30.6853 43.539 31.5814C44.1226 32.4775 44.4342 33.531 44.4342 34.6087C44.4325 36.0534 43.8724 37.4385 42.8767 38.46C41.881 39.4816 40.531 40.0562 39.1229 40.0579Z" fill="#FAE628"/>
<path d="M39.1224 36.425C38.7723 36.425 38.43 36.3185 38.1389 36.1189C37.8477 35.9194 37.6208 35.6357 37.4868 35.3038C37.3528 34.9719 37.3178 34.6067 37.3861 34.2544C37.4544 33.9021 37.623 33.5785 37.8706 33.3244C38.1182 33.0704 38.4336 32.8974 38.777 32.8274C39.1204 32.7573 39.4764 32.7932 39.7999 32.9307C40.1234 33.0682 40.3999 33.301 40.5944 33.5997C40.7889 33.8984 40.8927 34.2495 40.8927 34.6087C40.8922 35.0903 40.7055 35.552 40.3736 35.8925C40.0417 36.233 39.5918 36.4245 39.1224 36.425Z" fill="#FF4FB4"/>
<path d="M28.4999 54.7343C28.2674 54.7347 28.0371 54.6878 27.8222 54.5965C27.6074 54.5052 27.4123 54.3712 27.2482 54.2022L22.5266 49.3581C22.2639 49.0886 22.0905 48.741 22.0309 48.3648C21.9714 47.9885 22.0287 47.6026 22.1948 47.2616L26.9164 37.5733C27.0634 37.2716 27.2894 37.0178 27.5691 36.8405C27.8488 36.6631 28.1711 36.5692 28.4999 36.5692C28.8287 36.5692 29.151 36.6631 29.4307 36.8405C29.7104 37.0178 29.9364 37.2716 30.0834 37.5733L34.805 47.2616C34.9711 47.6026 35.0284 47.9885 34.9688 48.3648C34.9093 48.741 34.7359 49.0886 34.4732 49.3581L29.7516 54.2022C29.5874 54.3712 29.3923 54.5051 29.1775 54.5965C28.9627 54.6878 28.7324 54.7346 28.4999 54.7343Z" fill="#FFFA78"/>
<path d="M29.7516 54.2022L34.4732 49.3581C34.7359 49.0886 34.9093 48.741 34.9688 48.3648C35.0284 47.9885 34.971 47.6026 34.8049 47.2616L30.0834 37.5733C29.9363 37.2716 29.7103 37.0179 29.4306 36.8406C29.1509 36.6632 28.8287 36.5693 28.4999 36.5693V54.7335C28.7324 54.734 28.9626 54.6873 29.1774 54.5961C29.3922 54.5049 29.5874 54.3711 29.7516 54.2022Z" fill="#FAE628"/>
<path d="M25.933 47.7158L28.4999 42.4484L31.0668 47.7158L28.4999 50.3493L25.933 47.7158Z" fill="#FF87CA"/>
<path d="M31.0668 47.7158L28.4999 42.4484V50.3493L31.0668 47.7158Z" fill="#FF4FB4"/>
</svg>
