<svg width="44" height="53" viewBox="0 0 44 53" fill="none" xmlns="http://www.w3.org/2000/svg">
<path d="M23.4698 0H20.5304C20.4143 0 20.3029 0.0448744 20.2208 0.124751C20.1387 0.204628 20.0926 0.312964 20.0926 0.425927V4.69384H23.9076V0.425927C23.9076 0.312964 23.8615 0.204628 23.7794 0.124751C23.6973 0.0448744 23.5859 0 23.4698 0Z" fill="#BF834C"/>
<path d="M23.4696 0H22V4.6936H23.9074V0.425927C23.9074 0.312964 23.8613 0.204628 23.7791 0.124751C23.697 0.0448744 23.5857 0 23.4696 0Z" fill="#B27747"/>
<path d="M32.1756 38.8503H12.2386V40.4875H32.1756V38.8503Z" fill="#BF834C"/>
<path d="M22.8177 48.2221H21.1831C20.9541 48.2221 20.7345 48.1337 20.5726 47.9762C20.4107 47.8187 20.3198 47.605 20.3198 47.3823V18.0399H23.6802V47.3825C23.6802 47.6051 23.5893 47.8186 23.4276 47.976C23.2658 48.1334 23.0465 48.222 22.8177 48.2221Z" fill="#BF834C"/>
<path d="M22 18.0399V47.3826C21.9997 47.6012 21.9118 47.8111 21.7549 47.9677C21.598 48.1242 21.3845 48.2151 21.1599 48.221C21.1675 48.221 21.1749 48.221 21.1826 48.221H22.8172C23.0461 48.221 23.2657 48.1325 23.4276 47.975C23.5895 47.8175 23.6805 47.6039 23.6805 47.3811V18.0399H22Z" fill="#B27747"/>
<path d="M23.5448 15.8339L34.5116 52.3958C34.564 52.5701 34.673 52.7231 34.8223 52.8321C34.9717 52.941 35.1533 52.9999 35.3399 53H37.1467C37.2806 52.9999 37.4127 52.9695 37.5325 52.9112C37.6523 52.8528 37.7565 52.7682 37.8368 52.6639C37.9172 52.5597 37.9715 52.4386 37.9955 52.3104C38.0194 52.1822 38.0124 52.0503 37.9749 51.9252L27.1492 15.8337L23.5448 15.8339Z" fill="#FECB7B"/>
<path d="M37.9752 51.9255L27.1492 15.834H25.354L36.1798 51.9255C36.2172 52.0506 36.2243 52.1825 36.2003 52.3107C36.1763 52.4389 36.122 52.5599 36.0417 52.6642C35.9613 52.7685 35.8571 52.8531 35.7373 52.9114C35.6175 52.9698 35.4854 53.0002 35.3515 53.0003H37.1467C37.2806 53.0002 37.4128 52.9698 37.5326 52.9115C37.6524 52.8532 37.7566 52.7686 37.837 52.6643C37.9174 52.56 37.9717 52.439 37.9957 52.3107C38.0197 52.1825 38.0127 52.0506 37.9752 51.9255Z" fill="#F4BD76"/>
<path d="M16.8506 15.834L6.02457 51.9255C5.9871 52.0506 5.98008 52.1825 6.00405 52.3107C6.02802 52.4389 6.08233 52.5599 6.16268 52.6642C6.24303 52.7685 6.34722 52.8531 6.46701 52.9114C6.5868 52.9698 6.71889 53.0002 6.85284 53.0003H8.6596C8.84625 53.0002 9.02784 52.9413 9.17716 52.8323C9.32649 52.7234 9.43551 52.5703 9.48787 52.396L20.4552 15.834H16.8506Z" fill="#FECB7B"/>
<path d="M18.5759 15.834L7.60884 52.3958C7.55784 52.565 7.4533 52.7142 7.31008 52.8223C7.16687 52.9303 6.99229 52.9917 6.81116 52.9976C6.82522 52.9976 6.83903 53 6.85309 53H8.65985C8.84649 52.9999 9.02808 52.941 9.17741 52.8321C9.32673 52.7232 9.43575 52.5701 9.48812 52.3958L20.4549 15.834H18.5759Z" fill="#F4BD76"/>
<path d="M22 31.0605C22.0435 31.0589 22.0847 31.041 22.1149 31.0104C22.1452 30.9799 22.162 30.9392 22.162 30.8968C22.162 30.8544 22.1452 30.8137 22.1149 30.7831C22.0847 30.7526 22.0435 30.7346 22 30.733C21.9565 30.7346 21.9153 30.7526 21.8851 30.7831C21.8549 30.8137 21.838 30.8544 21.838 30.8968C21.838 30.9392 21.8549 30.9799 21.8851 31.0104C21.9153 31.041 21.9565 31.0589 22 31.0605Z" fill="#7AB243"/>
<path d="M41.0673 31.2892H2.93275C2.72236 31.2892 2.5206 31.2079 2.37184 31.0632C2.22307 30.9185 2.1395 30.7222 2.1395 30.5175V5.56346C2.1395 5.35879 2.22307 5.1625 2.37184 5.01778C2.5206 4.87305 2.72236 4.79175 2.93275 4.79175H41.0673C41.2776 4.79175 41.4794 4.87305 41.6282 5.01778C41.7769 5.1625 41.8605 5.35879 41.8605 5.56346V30.5192C41.8601 30.7236 41.7764 30.9195 41.6276 31.0639C41.4789 31.2082 41.2774 31.2893 41.0673 31.2892Z" fill="#1FE0D1"/>
<path d="M41.0675 4.79056H35.1889C35.3993 4.79056 35.6011 4.87186 35.7499 5.01659C35.8986 5.16131 35.9822 5.3576 35.9822 5.56227V30.518C35.9822 30.7227 35.8986 30.919 35.7499 31.0637C35.6011 31.2084 35.3993 31.2897 35.1889 31.2897H41.0673C41.1715 31.2898 41.2748 31.2699 41.3711 31.2311C41.4674 31.1923 41.5549 31.1354 41.6287 31.0637C41.7024 30.992 41.7608 30.9068 41.8007 30.8131C41.8406 30.7194 41.8611 30.619 41.861 30.5175V5.56347C41.8612 5.462 41.8407 5.3615 41.8009 5.26772C41.7611 5.17394 41.7027 5.08872 41.629 5.01693C41.5553 4.94514 41.4678 4.88819 41.3714 4.84935C41.2751 4.8105 41.1718 4.79053 41.0675 4.79056Z" fill="#149A8F"/>
<path d="M17.4906 6.40427H26.5096C26.6038 6.40427 26.6942 6.36787 26.7608 6.30307C26.8274 6.23827 26.8648 6.15038 26.8648 6.05873V3.5226C26.8648 3.47723 26.8556 3.43229 26.8378 3.39037C26.8199 3.34845 26.7938 3.31036 26.7608 3.27827C26.7278 3.24618 26.6886 3.22073 26.6455 3.20337C26.6024 3.186 26.5563 3.17706 26.5096 3.17706H17.4906C17.444 3.17706 17.3978 3.186 17.3547 3.20337C17.3116 3.22073 17.2725 3.24618 17.2395 3.27827C17.2065 3.31036 17.1803 3.34845 17.1625 3.39037C17.1446 3.43229 17.1354 3.47723 17.1354 3.5226V6.05873C17.1354 6.15038 17.1729 6.23827 17.2395 6.30307C17.3061 6.36787 17.3964 6.40427 17.4906 6.40427Z" fill="#FECB7B"/>
<path d="M26.8766 10.6614L16.8624 23.1911L12.9985 17.8753L5.99004 26.6441H38.4939L26.8766 10.6614Z" fill="#1E608B"/>
<path d="M19.3721 26.6453L12.998 17.8777L15.7164 26.6465L19.3721 26.6453Z" fill="#1B5B7F"/>
<path d="M26.8766 10.6614L32.1753 26.6443H38.4941L26.8766 10.6614Z" fill="#1B5B7F"/>
<path d="M2.93275 31.2895H41.0673C41.1714 31.2895 41.2746 31.2695 41.3708 31.2307C41.4671 31.1919 41.5545 31.1351 41.6282 31.0634C41.7018 30.9918 41.7603 30.9067 41.8001 30.8131C41.84 30.7195 41.8605 30.6191 41.8605 30.5178V26.6455H2.1395V30.5178C2.1395 30.6191 2.16002 30.7195 2.19988 30.8131C2.23975 30.9067 2.29818 30.9918 2.37184 31.0634C2.4455 31.1351 2.53294 31.1919 2.62918 31.2307C2.72542 31.2695 2.82858 31.2895 2.93275 31.2895Z" fill="#FECB7B"/>
<path d="M35.9822 26.6455V27.9653C35.9822 28.1844 35.8928 28.3945 35.7335 28.5493C35.5743 28.7042 35.3584 28.7913 35.1332 28.7913H2.93275C2.49469 28.6139 2.1395 28.2686 2.1395 27.8422V30.5166C2.1395 30.7212 2.22307 30.9175 2.37184 31.0622C2.5206 31.207 2.72236 31.2883 2.93275 31.2883H41.0673C41.2776 31.2883 41.4794 31.207 41.6282 31.0622C41.7769 30.9175 41.8605 30.7212 41.8605 30.5166V26.6443H35.9822V26.6455Z" fill="#F4BD76"/>
<path d="M43.4112 33.3476H0.588768C0.432617 33.3476 0.282861 33.2872 0.172446 33.1798C0.0620304 33.0724 0 32.9267 0 32.7748V30.6931C0 30.5412 0.0620304 30.3955 0.172446 30.2881C0.282861 30.1807 0.432617 30.1204 0.588768 30.1204H43.4112C43.5674 30.1204 43.7171 30.1807 43.8276 30.2881C43.938 30.3955 44 30.5412 44 30.6931V32.7748C44 32.9267 43.938 33.0724 43.8276 33.1798C43.7171 33.2872 43.5674 33.3476 43.4112 33.3476Z" fill="#BF834C"/>
<path d="M43.4112 30.1204H38.1081V31.0173C38.1081 31.3073 37.9897 31.5853 37.779 31.7904C37.5682 31.9954 37.2824 32.1106 36.9844 32.1106H0.588768C0.432617 32.1106 0.282861 32.0502 0.172446 31.9428C0.0620304 31.8354 0 31.6897 0 31.5378V32.775C0 32.9269 0.0620304 33.0726 0.172446 33.18C0.282861 33.2875 0.432617 33.3478 0.588768 33.3478H43.4112C43.5674 33.3478 43.7171 33.2875 43.8276 33.18C43.938 33.0726 44 32.9269 44 32.775V30.6934C44 30.6181 43.9848 30.5436 43.9553 30.4741C43.9257 30.4046 43.8823 30.3414 43.8276 30.2882C43.773 30.235 43.708 30.1928 43.6366 30.164C43.5651 30.1352 43.4886 30.1204 43.4112 30.1204Z" fill="#B27747"/>
<path d="M32.1753 17.9523L26.8759 10.6614L21.7454 17.0841L25.1804 16.0209L26.866 18.2405L28.0603 15.8339L32.1753 17.9523Z" fill="white"/>
<path d="M32.1751 17.9523L26.8766 10.6614L28.7004 16.1627L32.1751 17.9523Z" fill="#E2D9C5"/>
<path d="M12.9983 17.8779L9.10802 22.744L11.9576 22.243L12.9956 23.6892L15.5078 21.3295L12.9983 17.8779Z" fill="white"/>
<path d="M14.3934 22.3764L15.508 21.3295L12.998 17.8779L14.3934 22.3764Z" fill="#E2D9C5"/>
<path d="M26.5094 3.17706H22V6.40427H26.5094C26.6036 6.40427 26.6939 6.36787 26.7605 6.30307C26.8271 6.23827 26.8645 6.15038 26.8645 6.05873V3.5226C26.8645 3.47723 26.8554 3.43229 26.8375 3.39037C26.8197 3.34845 26.7935 3.31036 26.7605 3.27827C26.7275 3.24618 26.6884 3.22073 26.6453 3.20337C26.6022 3.186 26.556 3.17706 26.5094 3.17706Z" fill="#F4BD76"/>
</svg>
